<svg width="16" height="16" viewBox="0 0 16 16" fill="none" xmlns="http://www.w3.org/2000/svg">
<path d="M8.50605 0.90375L10.1885 4.74125C10.2518 4.88567 10.3527 5.01046 10.4807 5.10259C10.6087 5.19471 10.759 5.2508 10.916 5.265L15.0148 5.6325C15.4785 5.7 15.6635 6.26875 15.3273 6.59625L12.2398 9.19C11.9898 9.4 11.876 9.73 11.9448 10.0487L12.8423 14.25C12.921 14.7113 12.4373 15.0638 12.0223 14.845L8.4448 12.75C8.30987 12.6708 8.15625 12.6291 7.9998 12.6291C7.84335 12.6291 7.68973 12.6708 7.5548 12.75L3.9773 14.8438C3.56355 15.0612 3.07855 14.71 3.1573 14.2487L4.0548 10.0475C4.1223 9.72875 4.0098 9.39875 3.7598 9.18875L0.671048 6.5975C0.336048 6.27125 0.521048 5.70125 0.983548 5.63375L5.0823 5.26625C5.23934 5.25205 5.38969 5.19596 5.51765 5.10384C5.64562 5.01171 5.74651 4.88692 5.8098 4.7425L7.4923 0.905C7.70105 0.485 8.29855 0.485 8.50605 0.90375Z" fill="#FDD835"/>
<path d="M8.38453 4.97131L8.09953 2.14381C8.08828 1.98631 8.05578 1.71631 8.30828 1.71631C8.50828 1.71631 8.61703 2.13256 8.61703 2.13256L9.47203 4.40256C9.79453 5.26631 9.66203 5.56256 9.35078 5.73756C8.99328 5.93756 8.46578 5.78131 8.38453 4.97131Z" fill="#FFFF8D"/>
<path d="M11.91 8.93871L14.3625 7.02496C14.4838 6.92371 14.7025 6.76246 14.5275 6.57871C14.3888 6.43371 14.0138 6.64246 14.0138 6.64246L11.8675 7.48121C11.2275 7.70246 10.8025 8.02996 10.765 8.44246C10.7163 8.99247 11.21 9.41621 11.91 8.93871Z" fill="#F4B400"/>
</svg>
