<svg width="16" height="16" viewBox="0 0 16 16" fill="none" xmlns="http://www.w3.org/2000/svg">
<path d="M13.8195 6.07812V7.66563C13.8195 7.91563 13.6164 8.11875 13.3664 8.11875H8.91016V5.625H13.3648C13.6164 5.625 13.8195 5.82812 13.8195 6.07812Z" fill="#FE97AC"/>
<path d="M12.4 11.4359L12.2594 11.5719L12.2937 11.7625L12.1219 11.6703L11.95 11.7625L11.9844 11.5719L11.8438 11.4359L12.0375 11.4078L12.1219 11.2344L12.2078 11.4078L12.4 11.4359Z" fill="#EBBE3E"/>
<path d="M9.03516 11.825L9.27109 12.0546L9.21484 12.3796L9.50703 12.2265L9.79922 12.3796L9.74453 12.0546L9.98047 11.825L9.65391 11.7781L9.50703 11.4828L9.36172 11.7781L9.03516 11.825ZM11.4023 13.8562L11.3461 13.5312L11.582 13.3015L11.2555 13.2546L11.1102 12.9593L10.9633 13.2546L10.6367 13.3015L10.8727 13.5312L10.818 13.8562L11.1102 13.7015L11.4023 13.8562ZM11.8195 8.45151L11.6742 8.74683L11.3477 8.7937L11.5836 9.02339L11.5273 9.34839L11.8195 9.1937L12.1117 9.34839L12.057 9.02339L12.293 8.7937L11.9664 8.74683L11.8195 8.45151ZM12.5945 11.3718L12.268 11.325L12.1227 11.0296L11.9773 11.325L11.6508 11.3718L11.8867 11.6015L11.8305 11.9265L12.1227 11.7734L12.4148 11.9265L12.3586 11.6015L12.5945 11.3718ZM8.91016 8.30151H12.9727V13.7C12.9727 13.95 12.7695 14.1531 12.5195 14.1531H8.91016V8.30151ZM10.643 10.439L10.8805 10.2093L10.5539 10.1625L10.407 9.86714L10.2617 10.1625L9.93516 10.2093L10.1711 10.439L10.1148 10.764L10.407 10.6093L10.6992 10.764L10.643 10.439Z" fill="#DC0C55"/>
<path d="M10.6723 3.04529C11.3332 3.04529 11.8723 3.58435 11.8723 4.24529C11.8723 4.90779 11.3332 5.44529 10.6723 5.44529H8.20508L9.01602 4.21716C9.60352 3.40623 9.9832 3.04529 10.6723 3.04529Z" fill="#FAF7A6"/>
<path d="M12.5941 11.3718L12.3582 11.6015L12.4145 11.9265L12.1223 11.7734L11.8301 11.9265L11.8863 11.6015L11.6504 11.3718L11.977 11.325L12.1223 11.0297L12.2676 11.325L12.5941 11.3718ZM12.2598 11.5718L12.3988 11.4359L12.2066 11.4094L12.1207 11.2359L12.0348 11.4094L11.8426 11.4359L11.9816 11.5718L11.9473 11.7625L12.1191 11.6719L12.291 11.7625L12.2598 11.5718Z" fill="#EF4668"/>
<path d="M11.7352 8.82971L11.8195 8.65784L11.907 8.82971L12.0977 8.8594L11.9602 8.99221L11.993 9.18284L11.8195 9.09377L11.6492 9.18284L11.682 8.99221L11.543 8.8594L11.7352 8.82971Z" fill="#EBBE3E"/>
<path d="M12.057 9.025L12.1117 9.35L11.8195 9.19531L11.5273 9.35L11.5836 9.025L11.3477 8.79531L11.6742 8.74844L11.8195 8.45312L11.9664 8.74844L12.293 8.79531L12.057 9.025ZM11.8195 8.65781L11.7336 8.82969L11.5414 8.85938L11.6805 8.99375L11.6477 9.18437L11.818 9.09531L11.9898 9.18437L11.957 8.99375L12.0945 8.85938L11.9039 8.82969L11.8195 8.65781Z" fill="#EF4668"/>
<path d="M11.2477 13.4984L11.2805 13.689L11.1102 13.6L10.9383 13.689L10.9711 13.4984L10.832 13.364L11.0227 13.3343L11.1102 13.1609L11.1961 13.3343L11.3883 13.364L11.2477 13.4984Z" fill="#EBBE3E"/>
<path d="M11.3461 13.5312L11.4023 13.8562L11.1102 13.7015L10.818 13.8562L10.8727 13.5312L10.6367 13.3015L10.9633 13.2547L11.1102 12.9594L11.2555 13.2547L11.582 13.3015L11.3461 13.5312ZM11.2805 13.689L11.2477 13.4984L11.3867 13.364L11.1945 13.3344L11.1086 13.1609L11.0211 13.3344L10.8305 13.364L10.968 13.4984L10.9352 13.689L11.107 13.6L11.2805 13.689Z" fill="#EF4668"/>
<path d="M10.5461 10.4062L10.5789 10.5984L10.407 10.5078L10.2352 10.5984L10.268 10.4062L10.1289 10.2719L10.3211 10.2437L10.407 10.0703L10.4914 10.2437L10.6836 10.2719L10.5461 10.4062Z" fill="#EBBE3E"/>
<path d="M10.4055 9.8656L10.5523 10.1609L10.8789 10.2078L10.6414 10.4375L10.6977 10.7625L10.4055 10.6094L10.1133 10.764L10.1695 10.439L9.93359 10.2094L10.2602 10.1625L10.4055 9.8656ZM10.5773 10.5984L10.5445 10.4062L10.682 10.2719L10.4898 10.2422L10.4039 10.0703L10.318 10.2422L10.1258 10.2719L10.2648 10.4062L10.232 10.5984L10.4023 10.5078L10.5773 10.5984Z" fill="#EF4668"/>
<path d="M9.59258 11.8609L9.7832 11.8891L9.6457 12.025L9.67852 12.2156L9.50664 12.125L9.33477 12.2156L9.36758 12.025L9.22852 11.8891L9.4207 11.8609L9.50664 11.6875L9.59258 11.8609Z" fill="#EBBE3E"/>
<path d="M9.59297 11.8609L9.50547 11.6875L9.41953 11.8609L9.22734 11.8875L9.36641 12.0234L9.33359 12.2141L9.50391 12.1234L9.67578 12.2141L9.64297 12.0234L9.78047 11.8875L9.59297 11.8609ZM9.74453 12.0562L9.79922 12.3813L9.50703 12.2281L9.21484 12.3813L9.27109 12.0562L9.03516 11.8266L9.36172 11.7797L9.50703 11.4844L9.65391 11.7797L9.98047 11.8266L9.74453 12.0562Z" fill="#EF4668"/>
<path d="M8.91016 2.2406C9.25234 2.83591 9.19922 3.43591 8.73203 4.24529L8.01641 5.3031L6.80234 3.50154C6.64453 3.22966 6.60703 2.88591 6.69766 2.56091C6.78672 2.23591 6.99766 1.96091 7.27109 1.79998C7.45547 1.69529 7.66172 1.63904 7.86797 1.63904C7.97266 1.63904 8.07891 1.6531 8.18203 1.68123C8.48984 1.7656 8.75078 1.96404 8.91016 2.2406ZM8.72578 9.23904V14.1531H7.28984V5.62498H8.01484L8.01641 5.62654L8.01953 5.62498H8.72578V8.30154V9.23904ZM7.05234 4.21248L7.86641 5.44373H5.39922C4.73672 5.44373 4.19922 4.90623 4.19922 4.24373C4.19922 3.58279 4.73672 3.04373 5.39922 3.04373C6.08672 3.04529 6.46484 3.40623 7.05234 4.21248Z" fill="#FAF7A6"/>
<path d="M7.10977 5.625V8.12031H2.70508C2.45508 8.12031 2.25195 7.91719 2.25195 7.66719V6.07812C2.25195 5.82812 2.45508 5.625 2.70508 5.625H7.10977Z" fill="#FE97AC"/>
<path d="M6.53125 11.8891L6.39375 12.025L6.42656 12.2156L6.25469 12.125L6.08281 12.2156L6.11562 12.025L5.97656 11.8891L6.16875 11.8609L6.25469 11.6875L6.34062 11.8609L6.53125 11.8891Z" fill="#EBBE3E"/>
<path d="M6.40195 11.7781L6.72852 11.825L6.49258 12.0547L6.54727 12.3797L6.25508 12.2265L5.96289 12.3797L6.01914 12.0547L5.7832 11.825L6.10977 11.7781L6.25508 11.4828L6.40195 11.7781ZM6.39414 12.025L6.53164 11.889L6.34102 11.8625L6.25352 11.689L6.16758 11.8625L5.97539 11.889L6.11445 12.025L6.08164 12.2156L6.25195 12.125L6.42383 12.2156L6.39414 12.025Z" fill="#EF4668"/>
<path d="M5.49375 10.4062L5.52656 10.5984L5.35625 10.5078L5.18281 10.5984L5.21562 10.4062L5.07812 10.2719L5.26875 10.2437L5.35625 10.0703L5.44063 10.2437L5.63125 10.2719L5.49375 10.4062Z" fill="#EBBE3E"/>
<path d="M5.50156 10.1609L5.82812 10.2078L5.59219 10.4375L5.64687 10.7625L5.35625 10.6078L5.06406 10.7625L5.11875 10.4375L4.88281 10.2078L5.20937 10.1609L5.35625 9.8656L5.50156 10.1609ZM5.52656 10.5984L5.49375 10.4062L5.63125 10.2719L5.44063 10.2422L5.35469 10.0703L5.26719 10.2422L5.07656 10.2719L5.21406 10.4062L5.18125 10.5984L5.35313 10.5078L5.52656 10.5984Z" fill="#EF4668"/>
<path d="M4.92969 13.364L4.78906 13.4984L4.825 13.689L4.65156 13.6L4.47969 13.689L4.51406 13.4984L4.375 13.364L4.56719 13.3343L4.65156 13.1609L4.7375 13.3343L4.92969 13.364Z" fill="#EBBE3E"/>
<path d="M4.65156 12.9578L4.79688 13.2531L5.12344 13.3L4.8875 13.5312L4.94375 13.8562L4.65156 13.7015L4.35938 13.8562L4.41563 13.5312L4.17969 13.3015L4.50625 13.2546L4.65156 12.9578ZM4.7375 13.3343L4.65156 13.1609L4.56563 13.3343L4.37344 13.364L4.5125 13.4984L4.47813 13.689L4.65 13.6L4.82188 13.689L4.7875 13.4984L4.92656 13.364L4.7375 13.3343Z" fill="#EF4668"/>
<path d="M3.66211 8.8594L3.8543 8.82971L3.94023 8.65784L4.02773 8.82971L4.21836 8.8594L4.0793 8.99221L4.11211 9.18284L3.94023 9.09377L3.76992 9.18284L3.80273 8.99221L3.66211 8.8594Z" fill="#EBBE3E"/>
<path d="M3.85469 8.82969L3.6625 8.85938L3.80156 8.99375L3.76875 9.18437L3.93906 9.09531L4.11094 9.18437L4.07812 8.99375L4.21562 8.85938L4.025 8.82969L3.9375 8.65781L3.85469 8.82969ZM3.70469 9.025L3.46875 8.79531L3.79531 8.74844L3.94062 8.45312L4.0875 8.74844L4.41406 8.79531L4.17812 9.025L4.23281 9.35L3.94062 9.19531L3.64844 9.35L3.70469 9.025Z" fill="#EF4668"/>
<path d="M3.63984 11.6703L3.46797 11.7625L3.50078 11.5719L3.36328 11.4359L3.55391 11.4078L3.63984 11.2344L3.72578 11.4078L3.91797 11.4359L3.77891 11.5719L3.81016 11.7625L3.63984 11.6703Z" fill="#EBBE3E"/>
<path d="M4.94297 13.8562L4.88672 13.5312L5.12266 13.3015L4.79609 13.2546L4.65078 12.9593L4.50547 13.2546L4.17891 13.3015L4.41484 13.5312L4.35859 13.8562L4.65078 13.7015L4.94297 13.8562ZM5.06328 10.764L5.35547 10.6093L5.64609 10.764L5.59141 10.439L5.82734 10.2093L5.50078 10.1625L5.35547 9.86714L5.20859 10.1625L4.88203 10.2093L5.11797 10.439L5.06328 10.764ZM6.72734 11.825L6.40078 11.7781L6.25391 11.4828L6.10859 11.7781L5.78203 11.825L6.01797 12.0546L5.96172 12.3796L6.25391 12.2265L6.54609 12.3796L6.49141 12.0546L6.72734 11.825ZM3.09766 13.7V8.30151H7.10859V14.1531H3.55234C3.30078 14.1531 3.09766 13.95 3.09766 13.7ZM3.34609 11.9265L3.63828 11.7734L3.93047 11.9265L3.87422 11.6015L4.11016 11.3718L3.78359 11.325L3.63828 11.0296L3.49141 11.325L3.16484 11.3718L3.40078 11.6015L3.34609 11.9265ZM3.64766 9.34995L3.93984 9.19526L4.23203 9.34995L4.17734 9.02495L4.41328 8.79526L4.08672 8.74839L3.93984 8.45308L3.79453 8.74839L3.46797 8.79526L3.70391 9.02495L3.64766 9.34995Z" fill="#DC0C55"/>
<path d="M3.72539 11.4078L3.63945 11.2344L3.55195 11.4078L3.36133 11.4343L3.49883 11.5703L3.46602 11.7609L3.63789 11.6703L3.8082 11.7609L3.77539 11.5703L3.91445 11.4343L3.72539 11.4078ZM3.49258 11.325L3.63945 11.0297L3.78477 11.325L4.11133 11.3718L3.87539 11.6015L3.93164 11.9265L3.63945 11.7734L3.34727 11.9265L3.40195 11.6015L3.16602 11.3718L3.49258 11.325Z" fill="#EF4668"/>
<path d="M5.40039 5.44379H7.86758L7.05352 4.21254C6.46758 3.40629 6.08789 3.04535 5.40039 3.04535C4.73789 3.04535 4.20039 3.58442 4.20039 4.24535C4.20039 4.90629 4.73789 5.44379 5.40039 5.44379ZM8.7332 4.24692C9.19883 3.43754 9.25352 2.83754 8.91133 2.24223C8.75195 1.9641 8.49258 1.76723 8.1832 1.68285C8.08008 1.65629 7.97383 1.64067 7.86914 1.64067C7.66289 1.64067 7.45664 1.69692 7.27227 1.8016C6.99883 1.96098 6.78789 2.23754 6.69883 2.56254C6.6082 2.88754 6.6457 3.22973 6.80352 3.50317L8.01758 5.30473L8.7332 4.24692ZM8.72695 8.3016V5.62504H8.0207L8.01914 5.6266L8.01602 5.62504H7.29102V14.1532H8.72852V8.3016H8.72695ZM3.09883 13.7C3.09883 13.95 3.30195 14.1532 3.55195 14.1532H7.10977V8.3016H3.09883V13.7ZM2.70508 8.12035H7.10977V5.62504H2.70508C2.45508 5.62504 2.25195 5.82817 2.25195 6.07817V7.66567C2.25195 7.91723 2.45508 8.12035 2.70508 8.12035ZM10.6723 5.44379C11.3332 5.44379 11.8723 4.90629 11.8723 4.24379C11.8723 3.58285 11.3332 3.04379 10.6723 3.04379C9.9832 3.04379 9.60352 3.40473 9.01602 4.2141L8.20508 5.44223H10.6723V5.44379ZM12.5176 14.1532C12.7676 14.1532 12.9707 13.95 12.9707 13.7V8.3016H8.9082V14.1532H12.5176ZM13.1535 8.3016V13.7C13.1535 14.05 12.8691 14.3344 12.5191 14.3344H3.55352C3.20352 14.3344 2.91914 14.05 2.91914 13.7V8.3016H2.70664C2.35664 8.3016 2.07227 8.01723 2.07227 7.66723V6.07817C2.07227 5.72817 2.35664 5.44379 2.70664 5.44379H4.71914C4.30195 5.20629 4.0207 4.75785 4.0207 4.24379C4.0207 3.48285 4.63945 2.86254 5.40195 2.86254C5.86602 2.86254 6.20039 3.00473 6.52852 3.30785C6.45352 3.05629 6.45195 2.77817 6.52539 2.51254C6.62852 2.14223 6.86758 1.8266 7.18477 1.64535C7.50352 1.46098 7.87539 1.41098 8.23164 1.50785C8.58945 1.6016 8.88633 1.83129 9.0707 2.15004C9.34727 2.6266 9.38789 3.11879 9.19414 3.6891C9.6582 3.12192 10.0473 2.8641 10.677 2.8641C11.4379 2.8641 12.0582 3.48442 12.0582 4.24535C12.0582 4.75942 11.7754 5.20629 11.3582 5.44535H13.3707C13.7207 5.44535 14.0051 5.72973 14.0051 6.07973V7.66723C14.0051 8.01723 13.7207 8.3016 13.3707 8.3016H13.1535ZM13.366 8.12035C13.616 8.12035 13.8191 7.91723 13.8191 7.66723V6.07817C13.8191 5.82817 13.616 5.62504 13.366 5.62504H8.90977V8.12035H13.366Z" fill="#EF4668"/>
</svg>
