<svg width="20" height="20" viewBox="0 0 20 20" fill="none" xmlns="http://www.w3.org/2000/svg">
<path d="M18.3327 7.70898H1.66602C1.32435 7.70898 1.04102 7.42565 1.04102 7.08398C1.04102 6.74232 1.32435 6.45898 1.66602 6.45898H18.3327C18.6743 6.45898 18.9577 6.74232 18.9577 7.08398C18.9577 7.42565 18.6743 7.70898 18.3327 7.70898Z" fill="#9A9A9A"/>
<path d="M6.66667 14.375H5C4.65833 14.375 4.375 14.0917 4.375 13.75C4.375 13.4083 4.65833 13.125 5 13.125H6.66667C7.00833 13.125 7.29167 13.4083 7.29167 13.75C7.29167 14.0917 7.00833 14.375 6.66667 14.375Z" fill="#9A9A9A"/>
<path d="M12.0833 14.375H8.75C8.40833 14.375 8.125 14.0917 8.125 13.75C8.125 13.4083 8.40833 13.125 8.75 13.125H12.0833C12.425 13.125 12.7083 13.4083 12.7083 13.75C12.7083 14.0917 12.425 14.375 12.0833 14.375Z" fill="#9A9A9A"/>
<path d="M14.6327 17.7077H5.36602C2.04935 17.7077 1.04102 16.7077 1.04102 13.4243V6.57435C1.04102 3.29102 2.04935 2.29102 5.36602 2.29102H14.6243C17.941 2.29102 18.9494 3.29102 18.9494 6.57435V13.416C18.9577 16.7077 17.9493 17.7077 14.6327 17.7077ZM5.36602 3.54102C2.74935 3.54102 2.29102 3.99102 2.29102 6.57435V13.416C2.29102 15.9993 2.74935 16.4493 5.36602 16.4493H14.6243C17.241 16.4493 17.6994 15.9993 17.6994 13.416V6.57435C17.6994 3.99102 17.241 3.54102 14.6243 3.54102H5.36602Z" fill="#9A9A9A"/>
</svg>
