<svg width="20" height="20" viewBox="0 0 20 20" fill="none" xmlns="http://www.w3.org/2000/svg">
<path d="M7.49902 1.54102H12.499C14.7041 1.54102 16.1594 2.01393 17.0723 2.92676C17.9849 3.83955 18.458 5.29423 18.458 7.49902V12.499C18.458 14.7041 17.9851 16.1594 17.0723 17.0723C16.1594 17.9851 14.7041 18.458 12.499 18.458H7.49902C5.29423 18.458 3.83955 17.9849 2.92676 17.0723C2.01393 16.1594 1.54102 14.7041 1.54102 12.499V7.49902C1.54106 5.2941 2.01397 3.83954 2.92676 2.92676C3.83954 2.01397 5.2941 1.54106 7.49902 1.54102ZM7.49902 1.79102C5.54308 1.79105 4.06778 2.13339 3.10059 3.10059C2.13339 4.06778 1.79105 5.54308 1.79102 7.49902V12.499C1.79102 14.4549 2.13358 15.9302 3.10059 16.8975C4.06778 17.8647 5.54308 18.208 7.49902 18.208H12.499C14.4551 18.208 15.9302 17.8647 16.8975 16.8975C17.8647 15.9302 18.208 14.4551 18.208 12.499V7.49902C18.208 5.54308 17.8647 4.06778 16.8975 3.10059C15.9302 2.13358 14.4549 1.79102 12.499 1.79102H7.49902Z" stroke="#9A9A9A"/>
<path d="M6.875 7.375H13.125C13.1551 7.375 13.1863 7.38744 13.2119 7.41309C13.2376 7.43873 13.25 7.46985 13.25 7.5C13.25 7.53015 13.2376 7.56127 13.2119 7.58691C13.1863 7.61256 13.1551 7.625 13.125 7.625H6.875C6.84485 7.625 6.81373 7.61256 6.78809 7.58691C6.76244 7.56127 6.75 7.53015 6.75 7.5C6.75 7.46985 6.76244 7.43873 6.78809 7.41309C6.81373 7.38744 6.84485 7.375 6.875 7.375Z" stroke="#9A9A9A"/>
<path d="M6.875 12.375H13.125C13.1551 12.375 13.1863 12.3874 13.2119 12.4131C13.2376 12.4387 13.25 12.4699 13.25 12.5C13.25 12.5301 13.2376 12.5613 13.2119 12.5869C13.1863 12.6126 13.1551 12.625 13.125 12.625H6.875C6.84485 12.625 6.81373 12.6126 6.78809 12.5869C6.76244 12.5613 6.75 12.5301 6.75 12.5C6.75 12.4699 6.76244 12.4387 6.78809 12.4131C6.81373 12.3874 6.84485 12.375 6.875 12.375Z" stroke="#9A9A9A"/>
</svg>
