<svg width="20" height="20" viewBox="0 0 20 20" fill="none" xmlns="http://www.w3.org/2000/svg">
<path d="M9.99902 1.54102C14.6644 1.54102 18.4578 5.33365 18.458 9.99902C18.458 14.6645 14.6645 18.458 9.99902 18.458C5.33365 18.4578 1.54102 14.6644 1.54102 9.99902C1.54119 5.33376 5.33376 1.54119 9.99902 1.54102ZM9.99902 1.79102C5.47314 1.79119 1.79119 5.47314 1.79102 9.99902C1.79102 14.5251 5.47303 18.2078 9.99902 18.208C14.5252 18.208 18.208 14.5252 18.208 9.99902C18.2078 5.47303 14.5251 1.79102 9.99902 1.79102Z" stroke="#9A9A9A"/>
<path d="M6.66602 2.375H7.49902C7.53447 2.375 7.57533 2.39494 7.60059 2.42578C7.6268 2.46618 7.62884 2.50543 7.61816 2.53613L7.61621 2.54199C6.01543 7.35284 6.01564 12.647 7.61621 17.4658L7.61816 17.4727C7.62815 17.5014 7.62606 17.5366 7.60449 17.5742C7.57748 17.6034 7.53514 17.625 7.49902 17.625H6.66602C6.63589 17.625 6.60473 17.6125 6.5791 17.5869C6.55346 17.5613 6.54102 17.5301 6.54102 17.5C6.54102 17.4281 6.59268 17.3768 6.66113 17.375L7.31152 17.3594L7.12891 16.7344C5.8475 12.3595 5.8475 7.64045 7.12891 3.26562L7.31152 2.64062L6.66113 2.625C6.59268 2.62319 6.54102 2.57194 6.54102 2.5C6.54102 2.46985 6.55346 2.43873 6.5791 2.41309C6.60473 2.38749 6.63589 2.375 6.66602 2.375Z" stroke="#9A9A9A"/>
<path d="M12.457 2.37402C12.5146 2.35629 12.5649 2.37459 12.5947 2.40918L12.6172 2.44922C14.2412 7.31319 14.2411 12.6691 12.6172 17.5244L12.6152 17.5303L12.6133 17.5371C12.5968 17.5915 12.5484 17.624 12.5 17.624C12.4878 17.624 12.4809 17.6235 12.4775 17.623C12.4747 17.6226 12.4743 17.6226 12.4756 17.623L12.4668 17.6191L12.458 17.6162C12.4273 17.6059 12.4011 17.5835 12.3857 17.5527C12.3708 17.5228 12.3698 17.4932 12.3789 17.4678L12.3828 17.457C13.9336 12.7965 13.982 7.68249 12.5283 2.98633L12.3828 2.5332C12.3602 2.4654 12.3998 2.39384 12.457 2.37402Z" stroke="#9A9A9A"/>
<path d="M17.4727 12.3809C17.5046 12.3698 17.5458 12.3729 17.5879 12.4023C17.611 12.4185 17.6338 12.4516 17.6338 12.501V13.334C17.6338 13.364 17.6212 13.3953 17.5957 13.4209C17.5702 13.4464 17.5388 13.4589 17.5088 13.459C17.4369 13.459 17.3847 13.4073 17.3828 13.3389L17.3672 12.6875L16.7422 12.8711C14.5474 13.5156 12.2783 13.834 10 13.834C7.72162 13.834 5.45272 13.5155 3.2666 12.8711L2.6416 12.6865L2.625 13.3379C2.62337 13.403 2.56746 13.459 2.5 13.459C2.46985 13.459 2.43873 13.4465 2.41309 13.4209C2.38744 13.3953 2.375 13.3641 2.375 13.334V12.501C2.375 12.4654 2.3947 12.4237 2.42578 12.3984C2.46605 12.3725 2.50553 12.3702 2.53613 12.3809L2.54199 12.3838C7.35265 13.9845 12.6551 13.9844 17.4658 12.3838L17.4727 12.3809Z" stroke="#9A9A9A"/>
<path d="M2.45801 7.38184C7.32183 5.75797 12.6771 5.75803 17.5322 7.38184H17.5332C17.5638 7.39215 17.5901 7.41556 17.6055 7.44629C17.6202 7.47597 17.6212 7.50507 17.6123 7.53027L17.6064 7.54492L17.6025 7.56055C17.5991 7.5721 17.5903 7.58735 17.5703 7.60156C17.5488 7.61683 17.5221 7.62402 17.499 7.62402C17.4867 7.62402 17.4798 7.62355 17.4766 7.62305C17.4738 7.62261 17.4734 7.6226 17.4746 7.62305L17.457 7.61719L17.0049 7.47168C12.3166 6.01809 7.19584 6.06553 2.53613 7.61523C2.46075 7.63972 2.39879 7.60212 2.37695 7.54688C2.35689 7.46552 2.40114 7.40054 2.45703 7.38184H2.45801Z" fill="#9A9A9A" stroke="#9A9A9A"/>
</svg>
