<svg width="20" height="20" viewBox="0 0 20 20" fill="none" xmlns="http://www.w3.org/2000/svg">
<path d="M7.40918 1.94141H7.30078C5.31253 1.94142 4.01209 2.36877 3.19922 3.18164C2.38641 3.99453 1.95898 5.29499 1.95898 7.2832V12.7168C1.95904 14.7049 2.38639 16.0055 3.19922 16.8184C4.0121 17.6311 5.31265 18.0576 7.30078 18.0576H7.40918C9.20468 18.0576 10.4409 17.7024 11.2607 17.0332C12.0694 16.3731 12.5566 15.3384 12.7031 13.7861V13.7842L12.6982 13.7363C12.6839 13.6899 12.6427 13.6528 12.5869 13.6475H12.584C12.562 13.6454 12.5296 13.6517 12.498 13.6777C12.4678 13.7027 12.4528 13.734 12.4492 13.7617V13.7627C12.3225 15.1347 11.9244 16.1936 11.0479 16.8857C10.1899 17.5631 8.97137 17.8076 7.40137 17.8076H7.29297C5.5625 17.8076 4.24068 17.5073 3.37109 16.6377C2.50164 15.7682 2.20122 14.447 2.20117 12.7168V7.2832C2.20117 5.55274 2.50151 4.23091 3.37109 3.36133C4.24068 2.49185 5.5626 2.19141 7.29297 2.19141H7.40137C8.98019 2.19146 10.2056 2.44029 11.0645 3.13086C11.9368 3.8323 12.3276 4.903 12.4473 6.28906C12.4529 6.33514 12.4747 6.37012 12.5 6.3916C12.5235 6.41149 12.5516 6.42231 12.5869 6.41895L12.5986 6.41797L12.6426 6.40527C12.6832 6.38439 12.7143 6.33919 12.7109 6.28027C12.5757 4.70442 12.0913 3.65288 11.2812 2.98242C10.4599 2.30268 9.21651 1.94141 7.40918 1.94141Z" stroke="#FF707A"/>
<path d="M16.9824 9.875H7.49902C7.4689 9.87502 7.43773 9.88746 7.41211 9.91309C7.38649 9.93872 7.37402 9.96987 7.37402 10C7.37402 10.0301 7.38649 10.0613 7.41211 10.0869C7.43773 10.1125 7.4689 10.125 7.49902 10.125H16.9824C17.0126 10.125 17.0437 10.1126 17.0693 10.0869C17.095 10.0613 17.1074 10.0301 17.1074 10C17.1074 9.96985 17.095 9.93873 17.0693 9.91309C17.0437 9.88744 17.0126 9.875 16.9824 9.875Z" stroke="#FF707A"/>
<path d="M15.124 7.08594C15.0884 7.08605 15.0576 7.09966 15.0361 7.12109C15.0148 7.14261 15.002 7.1733 15.002 7.20898C15.002 7.24469 15.0147 7.27538 15.0361 7.29688L17.3867 9.64648L17.7402 10.001L17.3867 10.3545L15.0361 12.7041C15.0147 12.7256 15.002 12.7563 15.002 12.792C15.002 12.8277 15.0148 12.8584 15.0361 12.8799L15.042 12.8867L15.0479 12.8926C15.0511 12.8961 15.0584 12.9027 15.0723 12.9082C15.0868 12.914 15.1053 12.9169 15.124 12.917C15.1417 12.917 15.1576 12.9136 15.1709 12.9082C15.1837 12.903 15.1982 12.8945 15.2129 12.8799L18.0039 10.0889C18.0253 10.0674 18.039 10.0366 18.0391 10.001C18.0391 9.96513 18.0254 9.93364 18.0039 9.91211L15.2129 7.12109C15.1914 7.09957 15.1599 7.08594 15.124 7.08594Z" stroke="#FF707A"/>
</svg>
