<svg width="20" height="20" viewBox="0 0 20 20" fill="none" xmlns="http://www.w3.org/2000/svg">
<path d="M5.65723 4.875H10.9912C12.4148 4.87503 13.4231 5.25132 14.0771 5.90527C14.7311 6.55927 15.1073 7.56768 15.1074 8.99121V12.3252C15.1074 12.5574 15.0993 12.7629 15.0713 12.9521L15.0693 12.9668L15.0674 12.9824C14.9974 13.8109 14.7519 14.6682 14.167 15.3135C13.5953 15.944 12.6365 16.4414 10.9912 16.4414H10.4111L10.2607 16.6377L9.22754 17.9873L9.22168 17.9951C8.98209 18.3207 8.65092 18.4834 8.32422 18.4834C7.99756 18.4834 7.66632 18.3207 7.42676 17.9951L7.4248 17.9912L6.4248 16.6582L6.08008 16.1982C6.27768 16.2273 6.49934 16.3473 6.62207 16.499H6.62305L7.62305 17.8398C7.7684 18.037 8.00414 18.2294 8.32422 18.2295C8.64345 18.2295 8.87796 18.0374 9.02344 17.8408L9.02441 17.8418L10.0244 16.5088L10.0254 16.5068C10.1717 16.31 10.4056 16.1916 10.6572 16.1914H10.9912C12.1102 16.1914 13.0385 15.957 13.7129 15.3916C14.3962 14.8185 14.7361 13.9756 14.8223 12.9414L14.8213 12.9404C14.8474 12.7238 14.8574 12.5258 14.8574 12.3252V8.99121C14.8574 7.76564 14.5838 6.76743 13.8994 6.08301C13.2149 5.39864 12.2168 5.12503 10.9912 5.125H5.65723C5.45281 5.12501 5.2551 5.13336 5.06445 5.15137C4.01627 5.24177 3.16745 5.58314 2.5918 6.26758C2.02331 6.94362 1.79108 7.87304 1.79102 8.99121V12.3252C1.79103 13.7657 2.00385 14.8087 2.70605 15.4492C3.37082 16.0553 4.35344 16.181 5.52441 16.1895V16.4385C4.18848 16.4261 3.2359 16.2263 2.60352 15.6924C1.97002 15.1573 1.54104 14.1839 1.54102 12.3252V8.99121C1.54111 7.34586 2.03853 6.3871 2.67188 5.81445C3.32026 5.22825 4.18358 4.9804 5.02637 4.90625L5.03516 4.90527L5.04492 4.9043C5.2148 4.88308 5.42425 4.87501 5.65723 4.875Z" stroke="#9A9A9A"/>
<path d="M8.3252 10.6582C8.50728 10.6582 8.659 10.8092 8.65918 10.9912C8.65918 11.1767 8.51246 11.3252 8.3252 11.3252C8.13808 11.325 7.99219 11.1766 7.99219 10.9912C7.99237 10.8093 8.14326 10.6584 8.3252 10.6582Z" stroke="#9A9A9A"/>
<path d="M10.9912 10.6582C11.1733 10.6582 11.325 10.8092 11.3252 10.9912C11.3252 11.1734 11.1734 11.3252 10.9912 11.3252C10.8041 11.325 10.6582 11.1766 10.6582 10.9912C10.6584 10.8093 10.8093 10.6584 10.9912 10.6582Z" stroke="#9A9A9A"/>
<path d="M5.66699 10.6582C5.84907 10.6582 6.0008 10.8092 6.00098 10.9912C6.00098 11.1734 5.84918 11.3252 5.66699 11.3252C5.47988 11.325 5.33398 11.1766 5.33398 10.9912C5.33416 10.8093 5.48506 10.6584 5.66699 10.6582Z" stroke="#9A9A9A"/>
<path d="M9 1.54102H14.333C15.7566 1.54102 16.7649 1.91737 17.4189 2.57129C18.0729 3.22529 18.4491 4.23369 18.4492 5.65723V8.99121C18.4492 10.6368 17.9518 11.5953 17.3184 12.168C16.6744 12.7502 15.8188 12.9982 14.9814 13.0742H14.9502L14.8994 13.0645C14.885 13.0584 14.8731 13.0503 14.8652 13.042L14.8594 13.0352L14.8535 13.0293L14.833 12.9941C14.8284 12.9801 14.8262 12.9634 14.8281 12.9453C14.8577 12.7384 14.8662 12.5291 14.8662 12.3242V8.99121C14.8662 7.76543 14.5927 6.76654 13.9082 6.08203C13.2238 5.39776 12.2255 5.12407 11 5.12402H5.66602C5.46018 5.12403 5.2612 5.13311 5.06934 5.15137L5.05859 5.15234L5.04883 5.1543C5.02565 5.15744 4.98702 5.14669 4.95703 5.12207C4.92073 5.08278 4.91264 5.04555 4.91406 5.02832L4.91504 5.02441C4.98511 4.18357 5.2325 3.32107 5.81934 2.67285C6.39307 2.03923 7.35418 1.54102 9 1.54102ZM8.99121 1.79102C8.02097 1.79104 7.19734 1.96681 6.55469 2.38184C5.89843 2.80567 5.48579 3.4433 5.28125 4.25195L5.12402 4.87402H10.9912C12.415 4.87402 13.4231 5.2512 14.0771 5.90527C14.7312 6.55934 15.1084 7.56744 15.1084 8.99121V12.8545L15.7275 12.7012C16.5384 12.5008 17.1777 12.0883 17.6016 11.4307C18.0163 10.7871 18.1914 9.96126 18.1914 8.99121V5.65723C18.1913 4.43166 17.9178 3.43344 17.2334 2.74902C16.549 2.06461 15.5508 1.79109 14.3252 1.79102H8.99121Z" fill="#292D32" stroke="#9A9A9A"/>
</svg>
