<svg width="20" height="20" viewBox="0 0 20 20" fill="none" xmlns="http://www.w3.org/2000/svg">
<path d="M5.83301 2.14941C4.64824 2.14941 3.62769 2.53552 2.90234 3.26074C2.17701 3.98608 1.79104 5.00657 1.79102 6.19141V11.1914C1.79102 12.3763 2.17698 13.3967 2.90234 14.1221C3.6277 14.8474 4.64816 15.2334 5.83301 15.2334C5.86305 15.2335 5.89437 15.2459 5.91992 15.2715C5.9454 15.2971 5.95801 15.3283 5.95801 15.3584V17.1328C5.95801 17.5035 6.20988 17.6858 6.30859 17.7451C6.46396 17.8383 6.75668 17.9174 7.05078 17.7305L7.05957 17.7246L10.7676 15.2578H10.7686C10.7792 15.2507 10.793 15.2439 10.8076 15.2393C10.822 15.2348 10.8335 15.2334 10.8408 15.2334H14.1748C15.3595 15.2333 16.3802 14.8473 17.1055 14.1221C17.8306 13.3967 18.2158 12.3761 18.2158 11.1914V6.19141C18.2158 5.00666 17.8307 3.98607 17.1055 3.26074C16.3802 2.53547 15.3595 2.14951 14.1748 2.14941H5.83301ZM5.70801 15.5068L5.25879 15.4609C4.1134 15.3434 3.19171 14.8681 2.55566 14.1455C1.91906 13.4222 1.54109 12.4193 1.54102 11.2002V6.2002L1.5459 5.95605C1.5969 4.74952 2.02782 3.771 2.71582 3.08301C3.44959 2.34924 4.51421 1.9082 5.83301 1.9082H14.166C15.4848 1.9082 16.5494 2.34924 17.2832 3.08301C18.0169 3.81677 18.458 4.8815 18.458 6.2002V11.2002C18.4579 12.5188 18.0169 13.5837 17.2832 14.3174C16.5494 15.051 15.4847 15.4912 14.166 15.4912H10.873L10.7471 15.5752L7.2002 17.9404C7.04045 18.045 6.85241 18.0996 6.66602 18.0996C6.514 18.0996 6.35351 18.0611 6.21094 17.9844L6.20703 17.9824L6.09766 17.915C5.85589 17.74 5.70804 17.451 5.70801 17.1416V15.5068Z" stroke="#9A9A9A"/>
<path d="M10.001 5.5918C10.8329 5.59206 11.5088 6.26854 11.5088 7.10059C11.5086 7.76637 11.0315 8.10923 10.7734 8.28418C10.5988 8.40063 10.4296 8.53066 10.3096 8.69824C10.1728 8.88924 10.126 9.09022 10.126 9.29199V9.4668C10.126 9.53616 10.0706 9.59154 10.001 9.5918C9.97083 9.5918 9.93873 9.57935 9.91309 9.55371C9.88761 9.52811 9.87598 9.49685 9.87598 9.4668V9.29199C9.87598 8.6074 10.3621 8.26425 10.6328 8.07812C10.7998 7.96508 10.9606 7.83873 11.0762 7.67773C11.2077 7.49442 11.2587 7.30035 11.2588 7.10059C11.2588 6.40798 10.6936 5.84206 10.001 5.8418C9.30812 5.8418 8.74219 6.40782 8.74219 7.10059C8.74207 7.1306 8.72962 7.16198 8.7041 7.1875C8.6785 7.213 8.64725 7.22559 8.61719 7.22559C8.58712 7.22559 8.55588 7.213 8.53027 7.1875C8.50475 7.16198 8.4923 7.1306 8.49219 7.10059C8.49219 6.26838 9.1688 5.5918 10.001 5.5918Z" stroke="#9A9A9A"/>
<path d="M10 11.416C10.0301 11.416 10.0613 11.4285 10.0869 11.4541C10.1126 11.4797 10.125 11.5109 10.125 11.541C10.125 11.6109 10.0695 11.666 10 11.666C9.93048 11.666 9.875 11.6109 9.875 11.541C9.875 11.5109 9.88744 11.4797 9.91309 11.4541C9.93873 11.4285 9.96985 11.416 10 11.416Z" stroke="#9A9A9A"/>
</svg>
