<svg width="20" height="20" viewBox="0 0 20 20" fill="none" xmlns="http://www.w3.org/2000/svg">
<path d="M10.0176 2.30859C12.8413 2.30879 15.1426 4.60986 15.1426 7.43359V9.8418C15.1426 10.0964 15.1999 10.4096 15.2764 10.6895C15.3529 10.9697 15.4628 11.2703 15.5938 11.4941L16.5459 13.0811V13.082C16.8263 13.5517 16.8794 14.1192 16.6895 14.6367C16.501 15.1496 16.0921 15.5395 15.5771 15.709L15.5742 15.71C13.7941 16.3087 11.9066 16.6084 10.0176 16.6084C8.12849 16.6084 6.23938 16.3081 4.4502 15.709C3.87666 15.5095 3.47075 15.1184 3.2959 14.6377L3.29297 14.6328L3.23633 14.4482C3.12908 14.0125 3.20504 13.5358 3.47852 13.084V13.083L4.4375 11.4912C4.57026 11.2699 4.68103 10.9713 4.75781 10.6924C4.83468 10.4132 4.89258 10.1002 4.89258 9.8418V7.43359C4.89258 4.60974 7.19372 2.30859 10.0176 2.30859ZM10.0176 2.55859C7.33372 2.55859 5.14258 4.74016 5.14258 7.43359V9.8418C5.14258 10.357 4.91851 11.166 4.65527 11.6172L3.69727 13.209L3.69531 13.2109C3.46024 13.6063 3.35815 14.088 3.5293 14.541V14.542C3.52988 14.5436 3.53066 14.5452 3.53125 14.5469C3.53272 14.5507 3.53365 14.5548 3.53516 14.5586L3.53613 14.5576C3.70335 15.0127 4.0906 15.3146 4.53027 15.4648L4.5332 15.4658C8.11959 16.667 11.9234 16.667 15.5098 15.4658L15.5088 15.4648C15.9522 15.3169 16.3021 14.9822 16.4629 14.5371C16.6197 14.1028 16.5858 13.619 16.3369 13.208H16.3359L15.3789 11.6172C15.108 11.1503 14.8927 10.3503 14.8926 9.83398V7.43359C14.8926 4.74091 12.7102 2.55879 10.0176 2.55859Z" stroke="#9A9A9A"/>
<path d="M10.0244 1.48242C10.7695 1.48251 11.415 1.92406 11.6816 2.6123C11.7003 2.66833 11.6868 2.71368 11.665 2.74121C11.6417 2.76498 11.604 2.78223 11.5654 2.78223C11.5555 2.78219 11.5436 2.78072 11.5283 2.77637L11.5234 2.77539C11.2642 2.7039 11.0106 2.64986 10.7637 2.61328V2.6123L10.7549 2.61133C10.0788 2.52386 9.41698 2.55444 8.78418 2.70605L8.51465 2.77832L8.50488 2.78125C8.467 2.79343 8.41924 2.78294 8.38672 2.74707C8.35258 2.70934 8.34573 2.66178 8.3623 2.62109L8.36523 2.61426C8.63231 1.93043 9.28121 1.48242 10.0244 1.48242Z" stroke="#9A9A9A"/>
<path d="M7.69824 16.3828C7.79468 16.8249 8.01521 17.2379 8.33887 17.5615C8.7824 18.0051 9.39298 18.2578 10.0176 18.2578C11.1555 18.2578 12.1075 17.4529 12.3379 16.3828H12.5928C12.3589 17.5927 11.2953 18.5078 10.0176 18.5078C9.32599 18.5078 8.65322 18.2274 8.16309 17.7373C7.79246 17.3667 7.54251 16.8916 7.44238 16.3828H7.69824Z" stroke="#9A9A9A"/>
</svg>
