<svg width="20" height="20" viewBox="0 0 20 20" fill="none" xmlns="http://www.w3.org/2000/svg">
<mask id="mask0_6886_13638" style="mask-type:alpha" maskUnits="userSpaceOnUse" x="0" y="0" width="20" height="20">
<rect width="20" height="20" fill="#D9D9D9"/>
</mask>
<g mask="url(#mask0_6886_13638)">
<path d="M9.58333 10.4167H5.41667C5.29861 10.4167 5.19965 10.3767 5.11979 10.2967C5.03993 10.2167 5 10.1176 5 9.99937C5 9.88118 5.03993 9.78229 5.11979 9.70271C5.19965 9.62313 5.29861 9.58333 5.41667 9.58333H9.58333V5.41667C9.58333 5.29861 9.62333 5.19965 9.70333 5.11979C9.78333 5.03993 9.88243 5 10.0006 5C10.1188 5 10.2177 5.03993 10.2973 5.11979C10.3769 5.19965 10.4167 5.29861 10.4167 5.41667V9.58333H14.5833C14.7014 9.58333 14.8003 9.62333 14.8802 9.70333C14.9601 9.78333 15 9.88243 15 10.0006C15 10.1188 14.9601 10.2177 14.8802 10.2973C14.8003 10.3769 14.7014 10.4167 14.5833 10.4167H10.4167V14.5833C10.4167 14.7014 10.3767 14.8003 10.2967 14.8802C10.2167 14.9601 10.1176 15 9.99937 15C9.88118 15 9.78229 14.9601 9.70271 14.8802C9.62313 14.8003 9.58333 14.7014 9.58333 14.5833V10.4167Z" fill="#26A55D"/>
</g>
</svg>
