<svg width="22" height="22" viewBox="0 0 22 22" fill="none" xmlns="http://www.w3.org/2000/svg">
<path d="M1.83398 10.9998C1.83398 7.54287 1.83398 5.81439 2.90792 4.74044C3.98187 3.6665 5.71035 3.6665 9.16732 3.6665H12.834C16.2909 3.6665 18.0195 3.6665 19.0933 4.74044C20.1673 5.81439 20.1673 7.54287 20.1673 10.9998C20.1673 14.4568 20.1673 16.1853 19.0933 17.2592C18.0195 18.3332 16.2909 18.3332 12.834 18.3332H9.16732C5.71035 18.3332 3.98187 18.3332 2.90792 17.2592C1.83398 16.1853 1.83398 14.4568 1.83398 10.9998Z" stroke="#C7C7C7" stroke-width="1.5"/>
<path d="M9.16667 14.6665H5.5" stroke="#C7C7C7" stroke-width="1.5" stroke-linecap="round"/>
<path d="M12.834 14.6665H11.459" stroke="#C7C7C7" stroke-width="1.5" stroke-linecap="round"/>
<path d="M1.83398 9.1665H20.1673" stroke="#C7C7C7" stroke-width="1.5" stroke-linecap="round"/>
</svg>
