<svg width="32" height="32" viewBox="0 0 32 32" fill="none" xmlns="http://www.w3.org/2000/svg">
<mask id="mask0_7434_105543" style="mask-type:alpha" maskUnits="userSpaceOnUse" x="0" y="0" width="32" height="32">
<rect width="32" height="32" fill="#141414"/>
</mask>
<g mask="url(#mask0_7434_105543)">
<path d="M15.9988 16.9702L11.2091 21.7598C11.0671 21.9016 10.9098 21.9683 10.7371 21.9598C10.5644 21.9512 10.4072 21.8759 10.2654 21.7342C10.1237 21.5924 10.0528 21.4308 10.0528 21.2495C10.0528 21.0684 10.1237 20.9068 10.2654 20.7648L15.0294 16.0008L10.2398 11.2445C10.098 11.1025 10.0313 10.9409 10.0398 10.7598C10.0484 10.5787 10.1237 10.4172 10.2654 10.2752C10.4072 10.1334 10.5688 10.0625 10.7501 10.0625C10.9312 10.0625 11.0928 10.1334 11.2348 10.2752L15.9988 15.0648L20.7551 10.2752C20.8971 10.1334 21.0544 10.0625 21.2271 10.0625C21.3998 10.0625 21.557 10.1334 21.6988 10.2752C21.8459 10.4223 21.9194 10.5851 21.9194 10.7635C21.9194 10.9422 21.8459 11.1025 21.6988 11.2445L16.9348 16.0008L21.7244 20.7905C21.8662 20.9325 21.9371 21.0898 21.9371 21.2625C21.9371 21.4352 21.8662 21.5924 21.7244 21.7342C21.5773 21.8813 21.4146 21.9548 21.2361 21.9548C21.0574 21.9548 20.8971 21.8813 20.7551 21.7342L15.9988 16.9702Z" fill="#C7C7C7"/>
</g>
</svg>
