<svg width="24" height="24" viewBox="0 0 24 24" fill="none" xmlns="http://www.w3.org/2000/svg">
<path d="M8 1.75H16C17.7301 1.75 19.0268 2.24555 19.8906 3.10938C20.7544 3.9732 21.25 5.26991 21.25 7V17C21.25 18.7301 20.7544 20.0268 19.8906 20.8906C19.0268 21.7544 17.7301 22.25 16 22.25H8C6.26991 22.25 4.9732 21.7544 4.10938 20.8906C3.24555 20.0268 2.75 18.7301 2.75 17V7C2.75 5.26991 3.24555 3.9732 4.10938 3.10938C4.9732 2.24555 6.26991 1.75 8 1.75ZM8 2.25C6.49651 2.25 5.28283 2.61561 4.44922 3.44922C3.61561 4.28283 3.25 5.49651 3.25 7V17C3.25 18.5035 3.61561 19.7172 4.44922 20.5508C5.28283 21.3844 6.49651 21.75 8 21.75H16C17.5035 21.75 18.7172 21.3844 19.5508 20.5508C20.3844 19.7172 20.75 18.5035 20.75 17V7C20.75 5.49651 20.3844 4.28283 19.5508 3.44922C18.7172 2.61561 17.5035 2.25 16 2.25H8Z" fill="#292D32" stroke="white"/>
<path d="M14.5 4.25C14.6339 4.25 14.75 4.36614 14.75 4.5V6.5C14.75 7.46614 15.5339 8.25 16.5 8.25H18.5C18.6339 8.25 18.75 8.36614 18.75 8.5C18.75 8.63386 18.6339 8.75 18.5 8.75H16.5C15.2561 8.75 14.25 7.74386 14.25 6.5V4.5C14.25 4.36614 14.3661 4.25 14.5 4.25Z" fill="#292D32" stroke="white"/>
<path d="M8 12.75H12C12.1339 12.75 12.25 12.8661 12.25 13C12.25 13.1339 12.1339 13.25 12 13.25H8C7.86614 13.25 7.75 13.1339 7.75 13C7.75 12.8661 7.86614 12.75 8 12.75Z" fill="#292D32" stroke="white"/>
<path d="M8 16.75H16C16.1339 16.75 16.25 16.8661 16.25 17C16.25 17.1339 16.1339 17.25 16 17.25H8C7.86614 17.25 7.75 17.1339 7.75 17C7.75 16.8661 7.86614 16.75 8 16.75Z" fill="#292D32" stroke="white"/>
</svg>
