<svg width="28" height="28" viewBox="0 0 28 28" fill="none" xmlns="http://www.w3.org/2000/svg">
<path fill-rule="evenodd" clip-rule="evenodd" d="M15.8952 3.21494C15.8189 3.20603 15.7418 3.20603 15.6654 3.21494C15.5708 3.226 15.4297 3.26968 15.1487 3.49271C14.853 3.72723 14.4984 4.07995 13.9562 4.62213C13.4141 5.16431 13.0613 5.51894 12.8268 5.81453C12.6037 6.09564 12.5601 6.23672 12.549 6.33136C12.5401 6.4077 12.5401 6.48481 12.549 6.56115C12.5601 6.65579 12.6037 6.79689 12.8268 7.07798C13.0613 7.37357 13.4141 7.72821 13.9562 8.27039L19.7302 14.0444C20.2724 14.5865 20.627 14.9393 20.9226 15.1738C21.2037 15.3969 21.3448 15.4405 21.4394 15.4516C21.5157 15.4605 21.5929 15.4605 21.6693 15.4516C21.7639 15.4405 21.9049 15.3969 22.186 15.1738C22.4816 14.9393 22.8363 14.5865 23.3784 14.0444C23.9206 13.5022 24.2734 13.1476 24.5079 12.8519C24.731 12.5709 24.7746 12.4298 24.7857 12.3352C24.7945 12.2588 24.7945 12.1817 24.7857 12.1054C24.7746 12.0108 24.731 11.8696 24.5079 11.5885C24.2734 11.2929 23.9206 10.9383 23.3784 10.3961L17.6045 4.62213C17.0622 4.07995 16.7077 3.72723 16.412 3.49271C16.131 3.26968 15.9898 3.226 15.8952 3.21494ZM15.4624 1.47676C15.6737 1.45208 15.887 1.45208 16.0982 1.47676C16.6477 1.54094 17.0924 1.79858 17.4997 2.12181C17.8838 2.42646 18.3094 2.85215 18.8071 3.34992L24.6507 9.1935C25.1484 9.69121 25.5741 10.1169 25.8787 10.5008C26.202 10.9082 26.4596 11.3529 26.5238 11.9024C26.5485 12.1135 26.5485 12.3269 26.5238 12.5382C26.4596 13.0876 26.202 13.5323 25.8787 13.9397C25.5741 14.3237 25.1484 14.7493 24.6507 15.2471L24.5812 15.3166C24.0833 15.8143 23.6577 16.24 23.2738 16.5447C22.8664 16.8679 22.4217 17.1255 21.8723 17.1897C21.661 17.2144 21.4476 17.2144 21.2364 17.1897C20.6869 17.1255 20.2422 16.8679 19.8349 16.5447C19.4509 16.24 19.0253 15.8143 18.5276 15.3166L17.8143 14.6033L14.6041 17.8135L15.3174 18.5268C15.8151 19.0245 16.2408 19.4501 16.5454 19.8342C16.8687 20.2415 17.1263 20.6862 17.1904 21.2357C17.2152 21.4469 17.2152 21.6603 17.1904 21.8715C17.1263 22.4209 16.8687 22.8657 16.5454 23.2731C16.2408 23.657 15.8151 24.0827 15.3172 24.5804L15.2478 24.6498C14.7501 25.1477 14.3244 25.5734 13.9405 25.878C13.5331 26.2013 13.0883 26.4589 12.5389 26.523C12.3277 26.5478 12.1143 26.5478 11.9031 26.523C11.3536 26.4589 10.9089 26.2013 10.5016 25.878C10.1176 25.5734 9.69191 25.1477 9.1942 24.65L3.35067 18.8064C2.8529 18.3087 2.4272 17.8831 2.12254 17.499C1.79932 17.0917 1.54167 16.647 1.47749 16.0975C1.45282 15.8863 1.45282 15.6729 1.47749 15.4616C1.54167 14.9123 1.79932 14.4675 2.12254 14.0601C2.42719 13.6762 2.85289 13.2506 3.35064 12.7528L3.42021 12.6832C3.91792 12.1855 4.34358 11.7598 4.72756 11.4551C5.13492 11.1319 5.57961 10.8743 6.12908 10.8101C6.3403 10.7854 6.55368 10.7854 6.7649 10.8101C7.31437 10.8743 7.75906 11.1319 8.16642 11.4551C8.5504 11.7598 8.97605 12.1855 9.47377 12.6832L9.74527 12.9547L12.9554 9.74454L12.684 9.47304C12.1863 8.97532 11.7605 8.54966 11.4559 8.16569C11.1326 7.75832 10.875 7.31364 10.8108 6.76417C10.7861 6.55295 10.7861 6.33956 10.8108 6.12835C10.875 5.57887 11.1326 5.13419 11.4559 4.72682C11.7605 4.34285 12.1863 3.9172 12.684 3.41948L12.7535 3.34991C13.2513 2.85215 13.6769 2.42646 14.0609 2.12181C14.4683 1.79858 14.913 1.54094 15.4624 1.47676ZM14.1929 10.982L10.9827 14.1922L13.3666 16.5762L16.5769 13.3658L14.1929 10.982ZM20.4039 2.29587C20.7456 1.95417 21.2996 1.95417 21.6413 2.29587L25.2626 5.91722C25.6043 6.25894 25.6043 6.81295 25.2626 7.15466C24.9209 7.49637 24.367 7.49637 24.0252 7.15466L20.4039 3.53331C20.0622 3.19161 20.0622 2.63758 20.4039 2.29587ZM6.56188 12.5482C6.48555 12.5394 6.40843 12.5394 6.3321 12.5482C6.23746 12.5593 6.09637 12.603 5.81526 12.826C5.51968 13.0605 5.16504 13.4133 4.62286 13.9555C4.08069 14.4976 3.72797 14.8523 3.49344 15.1479C3.27041 15.429 3.22673 15.57 3.21567 15.6646C3.20676 15.7411 3.20676 15.8182 3.21567 15.8945C3.22673 15.9891 3.27041 16.1303 3.49344 16.4113C3.72797 16.7069 4.08069 17.0615 4.62287 17.6038L10.3969 23.3777C10.939 23.9199 11.2937 24.2727 11.5893 24.5072C11.8703 24.7302 12.0115 24.7739 12.1061 24.7849C12.1824 24.7938 12.2595 24.7938 12.3359 24.7849C12.4306 24.7739 12.5716 24.7302 12.8527 24.5072C13.1483 24.2727 13.503 23.9199 14.0451 23.3777C14.5873 22.8356 14.9401 22.4809 15.1746 22.1853C15.3976 21.9042 15.4413 21.7632 15.4523 21.6685C15.4612 21.5921 15.4612 21.515 15.4523 21.4387C15.4413 21.3441 15.3976 21.2029 15.1746 20.9219C14.9401 20.6262 14.5873 20.2717 14.0451 19.7294L8.27112 13.9555C7.72893 13.4133 7.3743 13.0605 7.07871 12.826C6.79761 12.603 6.65652 12.5593 6.56188 12.5482ZM2.29576 20.4025C2.63746 20.0608 3.19149 20.0608 3.53319 20.4025L7.15454 24.0238C7.49624 24.3655 7.49624 24.9195 7.15454 25.2612C6.81283 25.6029 6.25881 25.6029 5.9171 25.2612L2.29576 21.6398C1.95405 21.2981 1.95405 20.7442 2.29576 20.4025Z" fill="#C7C7C7"/>
</svg>
