<svg width="28" height="28" viewBox="0 0 28 28" fill="none" xmlns="http://www.w3.org/2000/svg">
<path d="M18.6309 26.5417H9.29753C5.30753 26.5417 3.75586 24.9901 3.75586 21.0001V11.6667C3.75586 11.1884 4.15253 10.7917 4.63086 10.7917H23.2975C23.7759 10.7917 24.1725 11.1884 24.1725 11.6667V21.0001C24.1725 24.9901 22.6209 26.5417 18.6309 26.5417ZM5.50586 12.5417V21.0001C5.50586 24.0101 6.28753 24.7917 9.29753 24.7917H18.6309C21.6409 24.7917 22.4225 24.0101 22.4225 21.0001V12.5417H5.50586Z" fill="#C7C7C7"/>
<path d="M22.7493 12.5416H5.24935C3.20768 12.5416 2.04102 11.3749 2.04102 9.33325V8.16659C2.04102 6.12492 3.20768 4.95825 5.24935 4.95825H22.7493C24.7327 4.95825 25.9577 6.18325 25.9577 8.16659V9.33325C25.9577 11.3166 24.7327 12.5416 22.7493 12.5416ZM5.24935 6.70825C4.18768 6.70825 3.79102 7.10492 3.79102 8.16659V9.33325C3.79102 10.3949 4.18768 10.7916 5.24935 10.7916H22.7493C23.776 10.7916 24.2077 10.3599 24.2077 9.33325V8.16659C24.2077 7.13992 23.776 6.70825 22.7493 6.70825H5.24935Z" fill="#C7C7C7"/>
<path d="M13.5803 6.70828H7.14027C6.89527 6.70828 6.66194 6.60328 6.49861 6.42828C5.78694 5.64661 5.81027 4.44494 6.55694 3.69828L8.21361 2.04161C8.98361 1.27161 10.2553 1.27161 11.0253 2.04161L14.1986 5.21494C14.4436 5.45994 14.5253 5.84494 14.3853 6.17161C14.2569 6.49828 13.9419 6.70828 13.5803 6.70828ZM7.78194 4.95828H11.4803L9.78861 3.27828C9.69527 3.18494 9.54361 3.18494 9.45027 3.27828L7.79361 4.93494C7.79361 4.94661 7.78194 4.94661 7.78194 4.95828Z" fill="#C7C7C7"/>
<path d="M20.8484 6.70828H14.4084C14.0584 6.70828 13.7318 6.49828 13.6034 6.17161C13.4634 5.84494 13.5451 5.47161 13.7901 5.21494L16.9634 2.04161C17.7334 1.27161 19.0051 1.27161 19.7751 2.04161L21.4318 3.69828C22.1784 4.44494 22.2134 5.64661 21.4901 6.42828C21.3268 6.60328 21.0934 6.70828 20.8484 6.70828ZM16.5318 4.95828H20.2301C20.2184 4.94661 20.2184 4.94661 20.2068 4.93494L18.5501 3.27828C18.4568 3.18494 18.3051 3.18494 18.2118 3.27828L16.5318 4.95828Z" fill="#C7C7C7"/>
<path d="M11.5964 19.7167C11.2697 19.7167 10.9314 19.6351 10.628 19.4717C9.96302 19.1101 9.55469 18.4217 9.55469 17.6751V11.6667C9.55469 11.1884 9.95135 10.7917 10.4297 10.7917H17.4764C17.9547 10.7917 18.3514 11.1884 18.3514 11.6667V17.6517C18.3514 18.4101 17.943 19.0984 17.278 19.4484C16.613 19.8101 15.808 19.7634 15.178 19.3434L14.1397 18.6434C14.0464 18.5734 13.918 18.5734 13.813 18.6434L12.7164 19.3667C12.378 19.6001 11.9814 19.7167 11.5964 19.7167ZM11.3047 12.5417V17.6634C11.3047 17.8151 11.398 17.8851 11.4564 17.9201C11.5147 17.9551 11.6314 17.9901 11.7597 17.9084L12.8564 17.1851C13.5447 16.7301 14.4314 16.7301 15.108 17.1851L16.1464 17.8851C16.2747 17.9667 16.3914 17.9317 16.4497 17.8967C16.508 17.8617 16.6014 17.7917 16.6014 17.6401V12.5301H11.3047V12.5417Z" fill="#C7C7C7"/>
</svg>
