<svg width="20" height="20" viewBox="0 0 20 20" fill="none" xmlns="http://www.w3.org/2000/svg">
<path d="M17.3586 6.6751L11.9003 2.30843C10.8336 1.45843 9.16696 1.4501 8.10863 2.3001L2.65029 6.6751C1.86696 7.3001 1.39196 8.5501 1.55863 9.53343L2.60863 15.8168C2.85029 17.2251 4.15863 18.3334 5.58363 18.3334H14.417C15.8253 18.3334 17.1586 17.2001 17.4003 15.8084L18.4503 9.5251C18.6003 8.5501 18.1253 7.3001 17.3586 6.6751ZM10.6253 15.0001C10.6253 15.3418 10.342 15.6251 10.0003 15.6251C9.65863 15.6251 9.37529 15.3418 9.37529 15.0001V12.5001C9.37529 12.1584 9.65863 11.8751 10.0003 11.8751C10.342 11.8751 10.6253 12.1584 10.6253 12.5001V15.0001Z" fill="#E04A50"/>
</svg>
