<svg width="22" height="22" viewBox="0 0 22 22" fill="none" xmlns="http://www.w3.org/2000/svg">
<path fill-rule="evenodd" clip-rule="evenodd" d="M4.81315 8.5277V7.3335C4.81315 3.91624 7.58339 1.146 11.0007 1.146C14.4179 1.146 17.1882 3.91624 17.1882 7.3335V8.5277C17.396 8.54232 17.592 8.56135 17.7765 8.58614C18.6016 8.69707 19.2962 8.93439 19.848 9.4861C20.3998 10.0379 20.6371 10.7326 20.748 11.5577C20.8548 12.3524 20.8548 13.3629 20.8548 14.6165V14.7172C20.8548 15.9708 20.8548 16.9812 20.748 17.776C20.6371 18.6011 20.3998 19.2957 19.848 19.8475C19.2962 20.3993 18.6016 20.6366 17.7765 20.7475C16.9817 20.8543 15.9713 20.8543 14.7176 20.8543H7.28369C6.03006 20.8543 5.0196 20.8543 4.22488 20.7475C3.39978 20.6366 2.70507 20.3993 2.15331 19.8475C1.60155 19.2957 1.36423 18.6011 1.25329 17.776C1.14645 16.9812 1.14647 15.9708 1.14648 14.7172V14.6165C1.14647 13.3629 1.14645 12.3524 1.25329 11.5577C1.36423 10.7326 1.60155 10.0379 2.15331 9.4861C2.70507 8.93439 3.39978 8.69707 4.22488 8.58614C4.40925 8.56135 4.60522 8.54232 4.81315 8.5277ZM6.18815 7.3335C6.18815 4.67563 8.34279 2.521 11.0007 2.521C13.6585 2.521 15.8132 4.67563 15.8132 7.3335V8.48248C15.4708 8.47932 15.1059 8.47932 14.7176 8.47933H7.28369C6.89546 8.47932 6.53055 8.47932 6.18815 8.48248V7.3335ZM3.12558 10.4584C3.37927 10.2047 3.73547 10.0393 4.40809 9.94884C5.1005 9.8558 6.01819 9.85433 7.33398 9.85433H14.6673C15.9831 9.85433 16.9008 9.8558 17.5932 9.94884C18.2659 10.0393 18.622 10.2047 18.8757 10.4584C19.1295 10.7121 19.2948 11.0683 19.3853 11.7409C19.4783 12.4334 19.4798 13.351 19.4798 14.6668C19.4798 15.9826 19.4783 16.9003 19.3853 17.5927C19.2948 18.2654 19.1295 18.6215 18.8757 18.8752C18.622 19.129 18.2659 19.2943 17.5932 19.3848C16.9008 19.4779 15.9831 19.4793 14.6673 19.4793H7.33398C6.01819 19.4793 5.1005 19.4779 4.40809 19.3848C3.73547 19.2943 3.37927 19.129 3.12558 18.8752C2.87188 18.6215 2.70647 18.2654 2.61604 17.5927C2.52294 16.9003 2.52148 15.9826 2.52148 14.6668C2.52148 13.351 2.52294 12.4334 2.61604 11.7409C2.70647 11.0683 2.87188 10.7121 3.12558 10.4584Z" fill="#C7C7C7"/>
</svg>
