<svg width="122" height="144" viewBox="0 0 122 144" fill="none" xmlns="http://www.w3.org/2000/svg">
<path fill-rule="evenodd" clip-rule="evenodd" d="M93.667 19.7841L106.813 115.658L107.994 125.277C108.375 128.375 106.171 131.196 103.072 131.576L20.3118 141.737C17.213 142.118 14.3925 139.914 14.012 136.816L1.27025 33.0494C1.08 31.5001 2.18181 30.0899 3.73121 29.8997C3.741 29.8985 3.7508 29.8973 3.76059 29.8962L10.6267 29.1261M16.1786 28.5035L22.6613 27.7763L16.1786 28.5035Z" fill="#E8E8E8"/>
<path d="M94.9054 19.6143C94.8116 18.9303 94.1811 18.4519 93.4972 18.5457C92.8132 18.6394 92.3348 19.2699 92.4286 19.9539L93.667 19.7841L94.9054 19.6143ZM106.813 115.658L108.054 115.506C108.053 115.5 108.052 115.494 108.052 115.488L106.813 115.658ZM107.994 125.277L106.753 125.429L107.994 125.277ZM103.072 131.576L103.225 132.817L103.072 131.576ZM20.3118 141.737L20.4642 142.978L20.3118 141.737ZM14.012 136.816L15.2527 136.663L14.012 136.816ZM1.27025 33.0494L2.51093 32.8971L1.27025 33.0494ZM3.76059 29.8962L3.89995 31.1385L3.76059 29.8962ZM10.7661 30.3683C11.4521 30.2913 11.9459 29.6728 11.8689 28.9867C11.7919 28.3007 11.1734 27.8069 10.4873 27.8839L10.6267 29.1261L10.7661 30.3683ZM16.0393 27.2613C15.3532 27.3382 14.8594 27.9568 14.9364 28.6428C15.0134 29.3289 15.6319 29.8227 16.318 29.7457L16.1786 28.5035L16.0393 27.2613ZM22.8006 29.0185C23.4867 28.9416 23.9805 28.323 23.9035 27.637C23.8265 26.9509 23.208 26.4572 22.5219 26.5341L22.6613 27.7763L22.8006 29.0185ZM93.667 19.7841L92.4286 19.9539L105.575 115.828L106.813 115.658L108.052 115.488L94.9054 19.6143L93.667 19.7841ZM106.813 115.658L105.572 115.81L106.753 125.429L107.994 125.277L109.235 125.124L108.054 115.506L106.813 115.658ZM107.994 125.277L106.753 125.429C107.05 127.842 105.334 130.039 102.92 130.335L103.072 131.576L103.225 132.817C107.009 132.352 109.699 128.908 109.235 125.124L107.994 125.277ZM103.072 131.576L102.92 130.335L20.1595 140.497L20.3118 141.737L20.4642 142.978L103.225 132.817L103.072 131.576ZM20.3118 141.737L20.1595 140.497C17.7458 140.793 15.549 139.077 15.2527 136.663L14.012 136.816L12.7713 136.968C13.236 140.752 16.6802 143.443 20.4642 142.978L20.3118 141.737ZM14.012 136.816L15.2527 136.663L2.51093 32.8971L1.27025 33.0494L0.0295632 33.2018L12.7713 136.968L14.012 136.816ZM1.27025 33.0494L2.51093 32.8971C2.40483 32.0331 3.01931 31.2465 3.88356 31.1404L3.73121 29.8997L3.57887 28.659C1.34432 28.9334 -0.244828 30.9672 0.0295632 33.2018L1.27025 33.0494ZM3.73121 29.8997L3.88356 31.1404C3.88902 31.1397 3.89448 31.1391 3.89995 31.1385L3.76059 29.8962L3.62124 28.654C3.60711 28.6556 3.59298 28.6573 3.57887 28.659L3.73121 29.8997ZM3.76059 29.8962L3.89995 31.1385L10.7661 30.3683L10.6267 29.1261L10.4873 27.8839L3.62124 28.654L3.76059 29.8962ZM16.1786 28.5035L16.318 29.7457L22.8006 29.0185L22.6613 27.7763L22.5219 26.5341L16.0393 27.2613L16.1786 28.5035Z" fill="#6B6B6B"/>
<path fill-rule="evenodd" clip-rule="evenodd" d="M90.0877 25.8189L101.987 112.707L103.057 121.423C103.402 124.232 101.432 126.784 98.6568 127.125L24.5428 136.225C21.7677 136.565 19.2386 134.565 18.8938 131.757L7.275 37.1345C7.14038 36.0382 7.92001 35.0403 9.01634 34.9057L19.0053 33.6793" fill="#C7C7C7"/>
<path d="M31.2461 1.25H97.9668C98.6958 1.25 99.3955 1.53936 99.9111 2.05469L119.878 22.0088C120.394 22.5246 120.685 23.2244 120.685 23.9541V114.707C120.685 116.226 119.453 117.457 117.935 117.457H31.2461C29.7273 117.457 28.4961 116.226 28.4961 114.707V4C28.4961 2.48122 29.7273 1.25 31.2461 1.25Z" fill="#E8E8E8" stroke="#6B6B6B" stroke-width="2.5"/>
<path d="M97.9062 3.39551V19.7844C97.9062 22.1259 99.8045 24.024 102.146 24.024H113.358" stroke="#6B6B6B" stroke-width="2.5" stroke-linecap="round" stroke-linejoin="round"/>
<path d="M43.2578 24.0273H80.0025M43.2578 40.9855H104.028M43.2578 59.3569H104.028M43.2578 77.7283H104.028M43.2578 96.0996H80.0025" stroke="#9A9A9A" stroke-width="2.5" stroke-linecap="round" stroke-linejoin="round"/>
</svg>
