<svg width="22" height="22" viewBox="0 0 22 22" fill="none" xmlns="http://www.w3.org/2000/svg">
<path d="M21.0785 19.6913L18.5577 2.19133C18.5283 1.98715 18.3518 1.83301 18.1418 1.83301H3.85721C3.64716 1.83301 3.4707 1.98719 3.44128 2.19133L0.92048 19.6913C0.886883 19.9205 1.04652 20.1288 1.27761 20.1622C1.2986 20.1663 1.31542 20.1663 1.33641 20.1663H9.32735C9.5248 20.1663 9.69708 20.0288 9.73907 19.8372L10.9995 14.0122L12.2599 19.8372C12.3019 20.0288 12.4741 20.1663 12.6716 20.1663H20.6625C20.8936 20.1663 21.0827 19.9788 21.0827 19.7497C21.0827 19.7288 21.0827 19.708 21.0785 19.6913ZM17.7763 2.66633L18.3056 6.33301C16.226 4.92883 15.3185 3.42883 14.9698 2.66633H17.7763ZM4.22273 2.66633H7.02921C6.6763 3.43301 5.77302 4.92883 3.69336 6.33301L4.22273 2.66633ZM13.0119 19.333L11.802 13.7538C11.7977 13.733 11.7893 13.7122 11.7851 13.6913C11.6213 13.2622 11.1339 13.0455 10.7012 13.2122C10.4785 13.2955 10.3021 13.4705 10.218 13.6913C10.2096 13.7122 10.2054 13.733 10.2012 13.7538L8.987 19.333H1.81958L3.53372 7.42469C6.60489 5.58301 7.64684 3.45801 7.94513 2.66637H10.5794V9.33305C10.5794 9.56223 10.7684 9.74973 10.9995 9.74973C11.2306 9.74973 11.4197 9.56223 11.4197 9.33305V2.66633H14.0539C14.348 3.45801 15.3941 5.58301 18.4611 7.42465L20.1794 19.333H13.0119Z" fill="#C7C7C7"/>
</svg>
