<svg width="7" height="8" viewBox="0 0 7 8" fill="none" xmlns="http://www.w3.org/2000/svg">
<path d="M3.72086 8C2.94828 8 2.2831 7.83029 1.72532 7.49086C1.171 7.14808 0.744865 6.67591 0.446919 6.07435C0.148973 5.4728 0 4.78387 0 4.00756C0 3.22117 0.152438 2.5272 0.457313 1.92565C0.762188 1.32073 1.19178 0.848561 1.7461 0.509136C2.30042 0.169712 2.95348 0 3.70527 0C4.31156 0 4.85202 0.109221 5.32665 0.327662C5.80129 0.542743 6.18411 0.8452 6.47513 1.23503C6.76961 1.62487 6.94457 2.08024 7 2.60113H5.48775C5.4046 2.23819 5.21406 1.92565 4.91611 1.66352C4.62163 1.40139 4.22668 1.27032 3.73126 1.27032C3.29819 1.27032 2.91883 1.38122 2.59317 1.60302C2.27097 1.82147 2.0198 2.13401 1.83964 2.54064C1.65949 2.94392 1.56941 3.42113 1.56941 3.97227C1.56941 4.53686 1.65776 5.02415 1.83445 5.43415C2.01114 5.84415 2.26058 6.16173 2.58278 6.38689C2.90844 6.61206 3.29126 6.72464 3.73126 6.72464C4.02574 6.72464 4.2925 6.67255 4.53155 6.56837C4.77407 6.46083 4.97674 6.30792 5.13957 6.10964C5.30587 5.91136 5.42193 5.67276 5.48775 5.39382H7C6.94457 5.89456 6.77654 6.34153 6.49592 6.73472C6.21529 7.12791 5.8394 7.43709 5.36823 7.66226C4.90052 7.88742 4.3514 8 3.72086 8Z" fill="white"/>
</svg>
