<svg width="12" height="12" viewBox="0 0 12 12" fill="none" xmlns="http://www.w3.org/2000/svg">
<path d="M6.78021 2.14737L7.57241 3.74276C7.68044 3.96032 7.96852 4.17787 8.20858 4.21413L9.64296 4.45586C10.5612 4.61298 10.7773 5.27772 10.1171 5.94247L9.00079 7.07254C8.81474 7.25987 8.70671 7.62851 8.76673 7.8944L9.08481 9.29037C9.33688 10.3902 8.75473 10.8193 7.78847 10.2452L6.44412 9.44145C6.19805 9.29641 5.80195 9.29641 5.55588 9.44145L4.20553 10.2391C3.23927 10.8132 2.65712 10.3842 2.90918 9.28433L3.22727 7.88836C3.28728 7.62851 3.17926 7.25987 2.99321 7.06649L1.88291 5.94851C1.22274 5.28377 1.4388 4.61298 2.35704 4.4619L3.79142 4.22017C4.03148 4.17787 4.31956 3.96636 4.42758 3.74881L5.21979 2.15342C5.64591 1.2832 6.35409 1.2832 6.78021 2.14737Z" fill="white"/>
</svg>
