<svg width="20" height="20" viewBox="0 0 20 20" fill="none" xmlns="http://www.w3.org/2000/svg">
<mask id="mask0_6886_13633" style="mask-type:alpha" maskUnits="userSpaceOnUse" x="0" y="0" width="20" height="20">
<rect width="20" height="20" fill="#D9D9D9"/>
</mask>
<g mask="url(#mask0_6886_13633)">
<path d="M5.41667 10.4168C5.29861 10.4168 5.19965 10.3768 5.11979 10.2968C5.03993 10.2168 5 10.1177 5 9.99954C5 9.88134 5.03993 9.78245 5.11979 9.70287C5.19965 9.62329 5.29861 9.5835 5.41667 9.5835H14.5833C14.7014 9.5835 14.8003 9.6235 14.8802 9.7035C14.9601 9.7835 15 9.88259 15 10.0008C15 10.119 14.9601 10.2179 14.8802 10.2975C14.8003 10.377 14.7014 10.4168 14.5833 10.4168H5.41667Z" fill="white"/>
</g>
</svg>
