<svg width="20" height="20" viewBox="0 0 20 20" fill="none" xmlns="http://www.w3.org/2000/svg">
<path d="M14.0253 13.0335C14.5836 12.6668 15.3169 13.0668 15.3169 13.7335V14.8085C15.3169 15.8668 14.4919 17.0001 13.5003 17.3335L10.8419 18.2168C10.3753 18.3751 9.61693 18.3751 9.15859 18.2168L6.50026 17.3335C5.50026 17.0001 4.68359 15.8668 4.68359 14.8085V13.7251C4.68359 13.0668 5.41693 12.6668 5.96693 13.0251L7.68359 14.1418C8.34193 14.5835 9.17526 14.8001 10.0086 14.8001C10.8419 14.8001 11.6753 14.5835 12.3336 14.1418L14.0253 13.0335Z" fill="#E1494F"/>
<path d="M16.6503 5.38379L11.6586 2.10879C10.7586 1.51712 9.27526 1.51712 8.37526 2.10879L3.35859 5.38379C1.75026 6.42546 1.75026 8.78379 3.35859 9.83379L4.69193 10.7005L8.37526 13.1005C9.27526 13.6921 10.7586 13.6921 11.6586 13.1005L15.3169 10.7005L16.4586 9.95045V12.5005C16.4586 12.8421 16.7419 13.1255 17.0836 13.1255C17.4253 13.1255 17.7086 12.8421 17.7086 12.5005V8.40045C18.0419 7.32546 17.7003 6.07546 16.6503 5.38379Z" fill="#E1494F"/>
</svg>
