<svg width="48" height="48" viewBox="0 0 48 48" fill="none" xmlns="http://www.w3.org/2000/svg">
<g clip-path="url(#clip0_7812_132240)">
<path d="M29 28L25.201 25.3468C24.5392 24.8879 24 23.7836 24 22.8801V17" stroke="#292D32" stroke-width="2.5" stroke-linecap="round" stroke-linejoin="round"/>
<path d="M24.5107 8.98047C32.6005 8.98065 39.165 15.546 39.165 23.6357C39.165 25.5964 38.7786 27.467 38.0791 29.1768C37.4415 28.638 36.6825 28.2346 35.8467 28.0166C36.3731 26.6569 36.665 25.1805 36.665 23.6357C36.665 16.9267 31.2198 11.4806 24.5107 11.4805C17.8018 11.4807 12.3555 16.9267 12.3555 23.6357C12.3557 30.3446 17.8019 35.7898 24.5107 35.79C26.0576 35.79 27.5362 35.4965 28.8975 34.9688C29.0384 35.5049 29.2542 36.0125 29.5391 36.4746C29.6906 36.7323 29.8634 36.976 30.0547 37.2021C28.3442 37.9023 26.4724 38.29 24.5107 38.29C16.4212 38.2898 9.85571 31.7253 9.85547 23.6357C9.85547 15.546 16.421 8.98068 24.5107 8.98047Z" fill="#292D32"/>
<path d="M39.358 33.5327C39.358 34.4608 39.0982 35.3393 38.6403 36.0817C37.7865 37.5171 36.2151 38.4823 34.4085 38.4823C33.1587 38.4823 32.0204 38.0244 31.1542 37.2449C30.7706 36.9232 30.4365 36.5272 30.1767 36.0817C29.7188 35.3393 29.459 34.4608 29.459 33.5327C29.459 30.7981 31.6739 28.5832 34.4085 28.5832C35.8934 28.5832 37.2174 29.239 38.1206 30.266C38.8878 31.1446 39.358 32.283 39.358 33.5327Z" stroke="#292D32" stroke-width="2.5" stroke-miterlimit="10" stroke-linecap="round" stroke-linejoin="round"/>
<path d="M32.4785 33.5327L33.7035 34.7577L36.3391 32.3201" stroke="#292D32" stroke-width="2" stroke-linecap="round" stroke-linejoin="round"/>
<rect x="1.25" y="1.25" width="45.5" height="45.5" rx="9.25" stroke="black" stroke-width="2.5"/>
</g>
<defs>
<clipPath id="clip0_7812_132240">
<rect width="48" height="48" fill="white"/>
</clipPath>
</defs>
</svg>
