<svg width="48" height="48" viewBox="0 0 48 48" fill="none" xmlns="http://www.w3.org/2000/svg">
<g clip-path="url(#clip0_7812_132240)">
<path d="M29 28L25.201 25.3468C24.5392 24.8879 24 23.7836 24 22.8801V17" stroke="#292D32" stroke-width="1.5" stroke-linecap="round" stroke-linejoin="round"/>
<path d="M24.5107 9.48047C32.3243 9.48065 38.665 15.8221 38.665 23.6357C38.665 25.481 38.3102 27.2435 37.667 28.8604C37.2572 28.5734 36.8074 28.3393 36.3271 28.167C36.8676 26.7598 37.165 25.2324 37.165 23.6357C37.165 16.6505 31.4959 10.9806 24.5107 10.9805C17.5256 10.9807 11.8555 16.6506 11.8555 23.6357C11.8557 30.6207 17.5258 36.2898 24.5107 36.29C26.1083 36.29 27.6371 35.9922 29.0449 35.4512C29.175 35.8105 29.341 36.1534 29.5391 36.4746C29.6024 36.5823 29.6696 36.6875 29.7402 36.79C28.1222 37.4343 26.3577 37.79 24.5107 37.79C16.6973 37.7898 10.3557 31.4491 10.3555 23.6357C10.3555 15.8221 16.6972 9.48068 24.5107 9.48047Z" fill="#292D32"/>
<path d="M39.358 33.5327C39.358 34.4608 39.0982 35.3393 38.6403 36.0817C37.7865 37.5171 36.2151 38.4823 34.4085 38.4823C33.1587 38.4823 32.0204 38.0244 31.1542 37.2449C30.7706 36.9232 30.4365 36.5272 30.1767 36.0817C29.7188 35.3393 29.459 34.4608 29.459 33.5327C29.459 30.7981 31.6739 28.5832 34.4085 28.5832C35.8934 28.5832 37.2174 29.239 38.1206 30.266C38.8878 31.1446 39.358 32.283 39.358 33.5327Z" stroke="#292D32" stroke-width="1.5" stroke-miterlimit="10" stroke-linecap="round" stroke-linejoin="round"/>
<path d="M32.4785 33.5327L33.7035 34.7577L36.3391 32.3201" stroke="#292D32" stroke-width="1.5" stroke-linecap="round" stroke-linejoin="round"/>
<rect x="0.85" y="0.85" width="46.3" height="46.3" rx="9.65" stroke="black" stroke-width="1.7"/>
</g>
<defs>
<clipPath id="clip0_7812_132240">
<rect width="48" height="48" fill="white"/>
</clipPath>
</defs>
</svg>
