<svg width="16" height="16" viewBox="0 0 16 16" fill="none" xmlns="http://www.w3.org/2000/svg">
<path d="M13.0007 8.33329C13.0007 7.41329 13.7473 6.66663 14.6673 6.66663V5.99996C14.6673 3.33329 14.0007 2.66663 11.334 2.66663H4.66732C2.00065 2.66663 1.33398 3.33329 1.33398 5.99996V6.33329C2.25398 6.33329 3.00065 7.07996 3.00065 7.99996C3.00065 8.91996 2.25398 9.66663 1.33398 9.66663V9.99996C1.33398 12.6666 2.00065 13.3333 4.66732 13.3333H11.334C14.0007 13.3333 14.6673 12.6666 14.6673 9.99996C13.7473 9.99996 13.0007 9.25329 13.0007 8.33329Z" stroke="white" stroke-width="1.2" stroke-linecap="round" stroke-linejoin="round"/>
<path d="M6 9.83337L10 5.83337" stroke="white" stroke-width="1.2" stroke-linecap="round" stroke-linejoin="round"/>
<path d="M9.99569 9.83333H10.0017" stroke="white" stroke-width="1.5" stroke-linecap="round" stroke-linejoin="round"/>
<path d="M5.99569 6.16671H6.00168" stroke="white" stroke-width="1.5" stroke-linecap="round" stroke-linejoin="round"/>
</svg>
