<svg width="20" height="20" viewBox="0 0 20 20" fill="none" xmlns="http://www.w3.org/2000/svg">
<path d="M17.7493 9.03346C18.0743 9.03346 18.3327 8.77513 18.3327 8.45013V7.67513C18.3327 4.25846 17.291 3.2168 13.8743 3.2168H6.12435C2.70768 3.2168 1.66602 4.25846 1.66602 7.67513V8.0668C1.66602 8.3918 1.92435 8.65013 2.24935 8.65013C2.99935 8.65013 3.60768 9.25846 3.60768 10.0085C3.60768 10.7585 2.99935 11.3585 2.24935 11.3585C1.92435 11.3585 1.66602 11.6168 1.66602 11.9418V12.3335C1.66602 15.7501 2.70768 16.7918 6.12435 16.7918H13.8743C17.291 16.7918 18.3327 15.7501 18.3327 12.3335C18.3327 12.0085 18.0743 11.7501 17.7493 11.7501C16.9993 11.7501 16.391 11.1418 16.391 10.3918C16.391 9.6418 16.9993 9.03346 17.7493 9.03346ZM7.49935 7.40013C7.95768 7.40013 8.33268 7.77513 8.33268 8.23346C8.33268 8.6918 7.96602 9.0668 7.49935 9.0668C7.04102 9.0668 6.66602 8.6918 6.66602 8.23346C6.66602 7.77513 7.03268 7.40013 7.49935 7.40013ZM12.4993 13.2335C12.0327 13.2335 11.6577 12.8585 11.6577 12.4001C11.6577 11.9418 12.0327 11.5668 12.491 11.5668C12.9493 11.5668 13.3243 11.9418 13.3243 12.4001C13.3243 12.8585 12.966 13.2335 12.4993 13.2335ZM13.2493 7.90013L7.64102 13.5085C7.51602 13.6335 7.35768 13.6918 7.19935 13.6918C7.04102 13.6918 6.88268 13.6335 6.75768 13.5085C6.51602 13.2668 6.51602 12.8668 6.75768 12.6251L12.366 7.0168C12.6077 6.77513 13.0077 6.77513 13.2493 7.0168C13.491 7.25846 13.491 7.65846 13.2493 7.90013Z" fill="#D92229"/>
</svg>
