<svg width="22" height="22" viewBox="0 0 22 22" fill="none" xmlns="http://www.w3.org/2000/svg">
<g clip-path="url(#clip0_6886_13566)">
<path d="M20.2818 2.96851C19.5057 2.96851 18.8485 3.48577 18.636 4.19355H18.3355V3.88426C18.3355 2.8482 17.5308 2.00648 16.4991 1.95711C16.4933 1.95668 16.4874 1.95634 16.4815 1.95608C16.4794 1.95599 16.4773 1.95578 16.4752 1.95569C16.4746 1.95569 16.4741 1.95569 16.4735 1.95569C16.4729 1.95569 16.4724 1.95561 16.4718 1.95556C16.4497 1.9547 16.4276 1.9541 16.4052 1.9541H5.59476C4.53042 1.9541 3.66447 2.82001 3.66447 3.88439V4.19368H3.36403C3.15151 3.4859 2.4943 2.96864 1.71824 2.96864C0.770818 2.96851 0 3.73933 0 4.68679C0 5.63425 0.770818 6.40507 1.71828 6.40507C2.49434 6.40507 3.15151 5.88781 3.36407 5.18003H3.66451V15.2091V19.5531C3.66451 19.8255 3.88533 20.0463 4.15775 20.0463H15.0728C15.3452 20.0463 15.566 19.8255 15.566 19.5531V16.911H17.8423C18.1148 16.911 18.3356 16.6902 18.3356 16.4178V5.18003H18.636C18.8485 5.88781 19.5057 6.40507 20.2818 6.40507C21.2293 6.40507 22.0001 5.63425 22.0001 4.68679C22 3.73933 21.2292 2.96851 20.2818 2.96851ZM1.71828 5.41855C1.31476 5.41855 0.986479 5.09027 0.986479 4.68675C0.986479 4.28323 1.31476 3.95495 1.71828 3.95495C2.1218 3.95495 2.45008 4.28323 2.45008 4.68675C2.45008 5.09027 2.1218 5.41855 1.71828 5.41855ZM14.5795 19.0599H4.65095V15.7023H5.51548V16.3626C5.51548 16.635 5.7363 16.8558 6.00872 16.8558C6.28114 16.8558 6.50196 16.635 6.50196 16.3626V15.7023H14.5795V19.0599ZM14.6103 3.54146C14.6085 3.55155 14.607 3.56174 14.6054 3.57188C14.6005 3.60217 14.5961 3.63255 14.5926 3.66327C14.5899 3.68772 14.5874 3.71234 14.5855 3.73705C14.5846 3.74917 14.5838 3.76137 14.5831 3.77353C14.581 3.81023 14.5795 3.84701 14.5795 3.88418V14.7158H6.50196V5.73643C6.50196 5.46405 6.28114 5.24319 6.00872 5.24319C5.7363 5.24319 5.51548 5.46405 5.51548 5.73643V14.7158H4.65095V3.88426C4.65095 3.36387 5.07432 2.94045 5.59476 2.94045H14.8233C14.7209 3.12414 14.6484 3.3267 14.6103 3.54146ZM17.3491 15.9245H15.566V15.2091V15.209V5.18003H17.3491V15.9245ZM17.3491 4.19355H15.566V3.88426C15.566 3.85448 15.5677 3.82514 15.5703 3.79609C15.5717 3.78122 15.5741 3.76666 15.5762 3.752C15.578 3.73877 15.5796 3.72554 15.582 3.71252C15.5857 3.69271 15.5903 3.67311 15.5952 3.65369C15.5968 3.64699 15.5984 3.64024 15.6002 3.63358C15.6066 3.61046 15.6138 3.58761 15.6219 3.56518C15.6225 3.56328 15.6232 3.56148 15.6239 3.55959C15.7157 3.30985 15.9108 3.10691 16.1618 3.00748C16.1656 3.00602 16.1694 3.00443 16.1732 3.00301C16.1936 2.99524 16.2145 2.98836 16.2356 2.98196C16.2431 2.97968 16.2507 2.97753 16.2583 2.97543C16.2771 2.97023 16.2961 2.96567 16.3154 2.96168C16.3289 2.95888 16.3426 2.95635 16.3564 2.95407C16.3673 2.95231 16.3781 2.95029 16.389 2.94887C16.4128 2.94587 16.437 2.94397 16.4613 2.94277C16.9608 2.97156 17.3491 3.3811 17.3491 3.88435V4.19355ZM20.2818 5.41855C19.8782 5.41855 19.55 5.09027 19.55 4.68675C19.55 4.28323 19.8782 3.95495 20.2818 3.95495C20.6853 3.95495 21.0136 4.28323 21.0136 4.68675C21.0136 5.09027 20.6853 5.41855 20.2818 5.41855Z" fill="#C7C7C7"/>
<path d="M6.49222 17.7454C6.48582 17.7144 6.47645 17.6834 6.46412 17.6532C6.45179 17.6236 6.43649 17.5951 6.41874 17.5684C6.40048 17.5413 6.38029 17.5161 6.35708 17.4934C6.3344 17.4707 6.30926 17.45 6.28262 17.4317C6.2555 17.414 6.22689 17.3987 6.19728 17.3864C6.16768 17.374 6.13661 17.3647 6.10503 17.3583C6.04139 17.3454 5.97582 17.3454 5.91218 17.3583C5.8806 17.3647 5.84954 17.374 5.81993 17.3864C5.79032 17.3987 5.76171 17.414 5.73459 17.4317C5.70795 17.45 5.6823 17.4707 5.65961 17.4934C5.63693 17.5161 5.61621 17.5413 5.59847 17.5684C5.58072 17.5951 5.56543 17.6237 5.55309 17.6532C5.54076 17.6833 5.53139 17.7144 5.52499 17.7455C5.51859 17.7775 5.51562 17.8101 5.51562 17.8422C5.51562 17.9719 5.56792 18.0992 5.65966 18.1909C5.68234 18.2136 5.708 18.2343 5.73464 18.2521C5.76175 18.2698 5.79037 18.2851 5.81997 18.2974C5.84958 18.3098 5.88065 18.3191 5.91223 18.3255C5.94428 18.3319 5.97634 18.3354 6.00839 18.3354C6.13859 18.3354 6.26586 18.2826 6.35713 18.1909C6.44934 18.0991 6.50215 17.9719 6.50215 17.8421C6.5021 17.81 6.49862 17.7775 6.49222 17.7454Z" fill="#C7C7C7"/>
</g>
<defs>
<clipPath id="clip0_6886_13566">
<rect width="22" height="22" fill="white"/>
</clipPath>
</defs>
</svg>
