<svg width="22" height="22" viewBox="0 0 22 22" fill="none" xmlns="http://www.w3.org/2000/svg">
<path d="M18.6154 2.59074L13.5385 1.8335C13.5385 3.08825 12.4021 4.10524 11 4.10524C9.59792 4.10524 8.46154 3.08825 8.46154 1.8335L3.38462 2.59074L0 7.89147L4.23077 10.1632V19.2502H17.7692V10.1632L22 7.89147L18.6154 2.59074ZM16.0769 7.13422V17.7357H5.92308V7.13422H4.23077V8.39731L2.29138 7.35609L4.455 3.96666L7.23038 3.55245C7.93185 4.77843 9.35846 5.61973 11 5.61973C12.6415 5.61973 14.0682 4.77843 14.7688 3.55245L17.5442 3.96666L19.7078 7.35609L17.7692 8.39731V7.13422H16.0769Z" fill="#C7C7C7"/>
</svg>
