<svg width="92" height="95" viewBox="0 0 92 95" fill="none" xmlns="http://www.w3.org/2000/svg">
<path fill-rule="evenodd" clip-rule="evenodd" d="M32.387 62.881C39.4225 69.4046 25.3452 76.9102 17.0729 79.9916C17.0648 80.0242 16.9142 80.0211 16.9062 80.0534C16.9376 80.0418 16.9183 79.8933 16.9499 79.8816C19.0986 71.3195 25.0031 56.4989 32.264 62.771C32.2844 62.7892 32.3064 62.8059 32.3265 62.8242C32.347 62.8423 32.3664 62.8626 32.387 62.881Z" fill="#E8E8E8"/>
<rect x="32.1394" y="53.2717" width="12.9144" height="3.28129" rx="0.5" transform="rotate(41.8287 32.1394 53.2717)" fill="#9A9A9A" stroke="#9A9A9A" stroke-linejoin="round"/>
<path d="M27.3702 34.9756C31.216 33.2465 36.9598 33.6232 38.7473 35.1034L35.5345 40.1281L30.9682 48.6098C27.9355 45.1773 22.2829 43.4698 19.6974 43.5497C21.4194 40.4226 25.7432 36.3922 27.3702 34.9756Z" fill="#E8E8E8" stroke="#9A9A9A" stroke-width="1.2"/>
<path d="M60.2708 64.4222C61.5644 60.4089 60.5555 54.7419 58.887 53.1288L54.2479 56.877L46.3226 62.3523C50.0691 64.9873 52.3906 70.4167 52.5968 72.9952C55.5145 70.9382 59.0426 66.1957 60.2708 64.4222Z" fill="#E8E8E8" stroke="#9A9A9A" stroke-width="1.2"/>
<path d="M30.4204 50.5628C41.3061 21.2017 64.8882 15.8711 74.9682 15.0923C75.7828 43.4721 51.0724 61.3286 43.7062 63.1887C34.0271 61.5822 31.0036 54.025 30.4204 50.5628Z" fill="#C7C7C7" stroke="#9A9A9A" stroke-width="1.2"/>
<path d="M48.1042 44.9133L37.0403 57.2752" stroke="#9A9A9A" stroke-width="1.2" stroke-linecap="round"/>
<path d="M64.0639 27.6832C66.57 29.9261 66.7832 33.7763 64.5404 36.2823C62.2975 38.7883 58.4473 39.0017 55.9412 36.7588C53.4353 34.5158 53.2219 30.6656 55.4648 28.1596C57.7077 25.6537 61.5579 25.4404 64.0639 27.6832Z" stroke="#9A9A9A" stroke-width="1.2"/>
</svg>
