<svg width="141" height="24" viewBox="0 0 141 24" fill="none" xmlns="http://www.w3.org/2000/svg">
<g clip-path="url(#clip0_6987_14060)">
<path d="M9.3895 3.1906C8.74358 2.86375 8.09765 2.70811 7.45173 2.70811C6.80581 2.70811 5.95508 2.89488 5.30916 3.28399C4.66324 3.65753 4.14335 4.18671 3.78101 4.84041C3.4029 5.4941 3.22961 6.22562 3.22961 7.01939C3.22961 7.81317 3.41866 8.54469 3.78101 9.21395C4.15911 9.86764 4.66324 10.3968 5.30916 10.7859C5.95508 11.175 6.67978 11.3618 7.45173 11.3618C8.22369 11.3618 8.71207 11.2217 9.34223 10.926C9.98816 10.6303 10.5553 10.2412 11.0594 9.74313L12.9027 11.7198C12.1622 12.4824 11.2958 13.0739 10.2875 13.5252C9.29497 13.9766 8.2867 14.1945 7.27844 14.1945C6.27017 14.1945 4.67899 13.8832 3.56045 13.2606C2.4419 12.6381 1.57542 11.782 0.945251 10.7081C0.315084 9.58749 0 8.37348 0 7.03496C0 5.69644 0.330838 4.51356 0.97676 3.43963C1.62268 2.3657 2.52067 1.52523 3.65497 0.902663C4.77352 0.311223 6.03385 -6.07967e-05 7.40447 -6.07967e-05C8.77508 -6.07967e-05 9.40525 0.202274 10.382 0.622507C11.3588 1.02718 12.1937 1.58749 12.8869 2.30344L11.0594 4.51356C10.5868 3.95325 10.0197 3.51745 9.3895 3.1906ZM27.2075 13.9455L26.1204 11.284H19.6927L18.6057 13.9455H15.3761L21.3942 0.217838H24.6238L30.5631 13.9455H27.2075ZM20.7168 8.79371H25.1122L22.9223 3.45519L20.7168 8.79371ZM33.7455 0.217838H36.8806V11.2373H42.8356V13.9455H33.7455V0.217838ZM46.8057 0.217838H49.9408V13.9455H46.8057V0.217838ZM54.3204 0.217838H64.3086V2.78593H57.4555V6.16336H63.7257V8.74702H57.4555V13.9455H54.3204V0.217838ZM78.834 0.918227C79.9683 1.5408 80.8663 2.38126 81.5279 3.45519C82.1896 4.52912 82.5047 5.72757 82.5047 7.05052C82.5047 8.37348 82.1739 9.57192 81.5279 10.6614C80.8663 11.7509 79.9683 12.6069 78.834 13.2139C77.6997 13.8365 76.4236 14.1478 75.0372 14.1478C73.6508 14.1478 72.3905 13.8365 71.2404 13.2139C70.1061 12.5914 69.2082 11.7353 68.5465 10.6614C67.8848 9.58749 67.5697 8.37348 67.5697 7.03496C67.5697 5.69644 67.9006 4.51356 68.5465 3.43963C69.2082 2.3657 70.0904 1.50967 71.2247 0.902663C72.359 0.295659 73.6193 -0.015625 75.0215 -0.015625C76.4236 -0.015625 77.6682 0.295659 78.8182 0.902663L78.834 0.918227ZM72.9419 3.28399C72.2802 3.67309 71.7603 4.20227 71.3665 4.85597C70.9884 5.52523 70.7836 6.25675 70.7836 7.05052C70.7836 7.8443 70.9726 8.60694 71.3665 9.26064C71.7603 9.9299 72.2802 10.4591 72.9419 10.8482C73.6036 11.2373 74.3125 11.4396 75.0687 11.4396C75.8249 11.4396 76.5339 11.2529 77.1798 10.8638C77.8257 10.4746 78.3298 9.94547 78.7079 9.2762C79.086 8.60694 79.2751 7.85986 79.2751 7.05052C79.2751 6.24118 79.086 5.52523 78.7079 4.85597C78.3298 4.18671 77.8257 3.65753 77.1798 3.28399C76.5339 2.89488 75.8407 2.70811 75.0687 2.70811C74.2968 2.70811 73.5878 2.89488 72.9261 3.28399H72.9419ZM94.4779 13.9455L92.2723 10.0233H89.0742V13.9455H85.9391V0.217838H91.973C93.7847 0.217838 95.1868 0.638072 96.1793 1.46297C97.1718 2.28788 97.676 3.47076 97.676 4.98048C97.676 6.49021 97.4554 6.94157 97.0143 7.70422C96.5732 8.4513 95.9273 9.02718 95.0765 9.41628L98.0383 13.9455H94.4779ZM89.0899 7.43963H91.9887C92.8552 7.43963 93.5326 7.23729 94.0053 6.84819C94.4779 6.44352 94.7142 5.86764 94.7142 5.08943C94.7142 4.31122 94.4779 3.76648 94.0053 3.37737C93.5326 2.98827 92.871 2.8015 91.9887 2.8015H89.0899V7.45519V7.43963ZM111.87 0.217838H114.848V13.9455H111.997L105.27 5.12056V13.9455H102.276V0.217838H105.128L111.886 9.08943V0.217838H111.87ZM119.196 0.217838H122.331V13.9455H119.196V0.217838ZM137.644 13.9455L136.557 11.284H130.13L129.043 13.9455H125.813L131.831 0.217838H135.061L141 13.9455H137.644ZM131.154 8.79371H135.549L133.359 3.45519L131.154 8.79371Z" fill="white"/>
<path d="M3.02472 23.9227L0.724609 17.1211H1.73288L3.84394 23.3935H3.3398L5.52964 17.1211H6.42763L8.5702 23.3935H8.08182L10.2244 17.1211H11.1539L8.85377 23.9227H7.82975L5.82897 18.1016H6.09679L4.08025 23.9227H3.02472Z" fill="white"/>
<path d="M16.7775 23.0822H20.7949V23.9227H15.8008V17.1211H20.6531V17.9616H16.7775V23.0666V23.0822ZM16.6988 20.0627H20.2435V20.8876H16.6988V20.0627Z" fill="white"/>
<path d="M25.8204 23.9227V17.1211H26.7972V23.0666H30.5152V23.9071H25.8047L25.8204 23.9227Z" fill="white"/>
<path d="M35.0997 23.9227V17.1211H36.0765V23.0666H39.7945V23.9071H35.084L35.0997 23.9227Z" fill="white"/>
<path d="M44.3789 23.9227V17.1211H45.1824L49.7353 22.7086H49.31V17.1211H50.2867V23.9227H49.4833L44.9303 18.3351H45.3557V23.9227H44.3789Z" fill="white"/>
<path d="M56.7775 23.0822H60.7949V23.9227H55.8008V17.1211H60.6531V17.9616H56.7775V23.0666V23.0822ZM56.6988 20.0627H60.2435V20.8876H56.6988V20.0627Z" fill="white"/>
<path d="M67.838 24C67.3181 24 66.814 23.9222 66.3413 23.7666C65.8687 23.6109 65.4906 23.4086 65.207 23.144L65.5694 22.3814C65.8372 22.6148 66.168 22.8016 66.5776 22.9417C66.9873 23.0973 67.4126 23.1596 67.838 23.1596C68.2633 23.1596 68.5627 23.1129 68.8147 23.0195C69.0668 22.9261 69.2401 22.8016 69.3661 22.646C69.4764 22.4903 69.5394 22.3035 69.5394 22.1012C69.5394 21.8989 69.4607 21.681 69.3031 21.5409C69.1456 21.4008 68.9565 21.2763 68.7045 21.1985C68.4524 21.1051 68.1846 21.0273 67.901 20.965C67.6174 20.9028 67.3023 20.8249 67.0188 20.7316C66.7194 20.6382 66.4516 20.5292 66.1995 20.3892C65.9475 20.2491 65.7584 20.0779 65.6009 19.8444C65.4433 19.6109 65.3803 19.3152 65.3803 18.9572C65.3803 18.5993 65.4749 18.288 65.6639 17.9923C65.853 17.6965 66.1365 17.4631 66.5304 17.2763C66.9242 17.0895 67.4126 17.0117 68.027 17.0117C68.6414 17.0117 68.8305 17.0584 69.2086 17.1674C69.6024 17.2763 69.949 17.4164 70.2326 17.6187L69.9018 18.3969C69.6025 18.2102 69.3031 18.0545 68.9723 17.9767C68.6414 17.8833 68.3264 17.8522 68.0113 17.8522C67.6962 17.8522 67.3023 17.8989 67.0503 17.9923C66.7982 18.0856 66.6249 18.2257 66.4989 18.3814C66.3886 18.537 66.3256 18.7238 66.3256 18.9261C66.3256 19.1284 66.4044 19.3619 66.5619 19.502C66.7194 19.6421 66.9085 19.751 67.1605 19.8444C67.4126 19.9222 67.6804 20 67.964 20.0779C68.2633 20.1401 68.5627 20.2179 68.8463 20.3113C69.1456 20.3892 69.4134 20.4981 69.6655 20.6382C69.9175 20.7783 70.1066 20.9495 70.2641 21.1829C70.4217 21.4164 70.4847 21.6965 70.4847 22.0545C70.4847 22.4125 70.3902 22.7238 70.2011 23.0039C70.0121 23.2997 69.7127 23.5331 69.3189 23.7199C68.925 23.8911 68.4209 23.9845 67.8222 23.9845L67.838 24Z" fill="white"/>
<path d="M77.3692 24C76.8493 24 76.3452 23.9222 75.8726 23.7666C75.4 23.6109 75.0219 23.4086 74.7383 23.144L75.1006 22.3814C75.3685 22.6148 75.6993 22.8016 76.1089 22.9417C76.5185 23.0973 76.9439 23.1596 77.3692 23.1596C77.7946 23.1596 78.0939 23.1129 78.346 23.0195C78.5981 22.9261 78.7714 22.8016 78.8974 22.646C79.0077 22.4903 79.0707 22.3035 79.0707 22.1012C79.0707 21.8989 78.9919 21.681 78.8344 21.5409C78.6768 21.4008 78.4878 21.2763 78.2357 21.1985C77.9836 21.1051 77.7158 21.0273 77.4322 20.965C77.1487 20.9028 76.8336 20.8249 76.55 20.7316C76.2507 20.6382 75.9829 20.5292 75.7308 20.3892C75.4787 20.2491 75.2897 20.0779 75.1321 19.8444C74.9746 19.6109 74.9116 19.3152 74.9116 18.9572C74.9116 18.5993 75.0061 18.288 75.1952 17.9923C75.3842 17.6965 75.6678 17.4631 76.0616 17.2763C76.4555 17.1051 76.9439 17.0117 77.5583 17.0117C78.1727 17.0117 78.3617 17.0584 78.7398 17.1674C79.1337 17.2763 79.4803 17.4164 79.7639 17.6187L79.433 18.3969C79.1337 18.2102 78.8344 18.0545 78.5035 17.9767C78.1727 17.8833 77.8576 17.8522 77.5425 17.8522C77.2274 17.8522 76.8336 17.8989 76.5815 17.9923C76.3295 18.0856 76.1562 18.2257 76.0301 18.3814C75.9041 18.537 75.8568 18.7238 75.8568 18.9261C75.8568 19.1284 75.9356 19.3619 76.0931 19.502C76.2507 19.6421 76.4397 19.751 76.6918 19.8444C76.9439 19.9222 77.2117 20 77.4953 20.0779C77.7946 20.1401 78.0939 20.2179 78.3775 20.3113C78.6768 20.3892 78.9447 20.4981 79.1967 20.6382C79.4488 20.7783 79.6378 20.9495 79.7954 21.1829C79.9529 21.4164 80.0159 21.6965 80.0159 22.0545C80.0159 22.4125 79.9214 22.7238 79.7324 23.0039C79.5433 23.2997 79.244 23.5331 78.8501 23.7199C78.4563 23.8911 77.9521 23.9845 77.3535 23.9845L77.3692 24Z" fill="white"/>
<path d="M93.9422 24.0001C93.4066 24.0001 92.9182 23.9067 92.4771 23.7355C92.036 23.5643 91.6421 23.3153 91.3113 23.004C90.9804 22.6927 90.7284 22.3192 90.5393 21.8989C90.3503 21.4787 90.2715 21.0118 90.2715 20.5137C90.2715 20.0157 90.366 19.5487 90.5393 19.1285C90.7284 18.7083 90.9804 18.3347 91.3113 18.0235C91.6421 17.7122 92.036 17.4631 92.4771 17.2919C92.9182 17.1207 93.4066 17.0273 93.958 17.0273C94.5094 17.0273 94.9977 17.1207 95.4546 17.2919C95.9115 17.4631 96.2896 17.7277 96.6047 18.0857L95.9903 18.6927C95.7067 18.4281 95.4074 18.2258 95.0765 18.1013C94.7457 17.9768 94.3833 17.9145 94.0052 17.9145C93.6271 17.9145 93.249 17.9768 92.9024 18.1013C92.5716 18.2258 92.2723 18.4126 92.0202 18.646C91.7681 18.8795 91.5791 19.1596 91.453 19.4709C91.3113 19.7978 91.2482 20.1402 91.2482 20.5137C91.2482 20.8873 91.3113 21.2297 91.453 21.541C91.5948 21.8678 91.7839 22.1324 92.0202 22.3814C92.2723 22.6149 92.5558 22.8017 92.8867 22.9262C93.2175 23.0507 93.5799 23.1129 93.9737 23.1129C94.3676 23.1129 94.6984 23.0507 95.0293 22.9417C95.3601 22.8328 95.6752 22.646 95.9745 22.3814L96.5417 23.1129C96.1951 23.3931 95.8012 23.611 95.3443 23.7511C94.8875 23.8912 94.4148 23.969 93.9265 23.969L93.9422 24.0001ZM95.6122 23.004V20.4826H96.5574V23.1285L95.6122 23.004Z" fill="white"/>
<path d="M101.867 23.9227V17.1211H104.545C105.144 17.1211 105.664 17.2145 106.089 17.4012C106.515 17.588 106.846 17.8682 107.066 18.2106C107.302 18.5686 107.413 18.9888 107.413 19.4869C107.413 19.9849 107.302 20.4051 107.066 20.7476C106.83 21.1055 106.515 21.3701 106.089 21.5569C105.664 21.7437 105.144 21.837 104.545 21.837H102.403L102.844 21.3857V23.9071H101.867V23.9227ZM102.844 21.5102L102.403 21.0277H104.514C105.144 21.0277 105.617 20.8876 105.948 20.623C106.278 20.3584 106.436 19.9849 106.436 19.4869C106.436 18.9888 106.278 18.6308 105.948 18.3662C105.617 18.1016 105.144 17.9616 104.514 17.9616H102.403L102.844 17.4791V21.4946V21.5102ZM106.467 23.9227L104.719 21.4635H105.774L107.539 23.9227H106.467Z" fill="white"/>
<path d="M115.557 24.0001C115.038 24.0001 114.549 23.9067 114.092 23.7355C113.651 23.5643 113.257 23.3153 112.926 23.004C112.596 22.6927 112.344 22.3192 112.155 21.8989C111.965 21.4787 111.887 21.0118 111.887 20.5137C111.887 20.0157 111.981 19.5487 112.155 19.1285C112.344 18.7083 112.596 18.3347 112.926 18.0235C113.257 17.7122 113.635 17.4631 114.092 17.2919C114.533 17.1207 115.022 17.0273 115.557 17.0273C116.093 17.0273 116.566 17.1207 117.007 17.2919C117.448 17.4631 117.842 17.7122 118.173 18.0235C118.503 18.3347 118.756 18.7083 118.945 19.1285C119.118 19.5487 119.212 20.0157 119.212 20.5137C119.212 21.0118 119.118 21.4787 118.945 21.8989C118.771 22.3192 118.503 22.6927 118.173 23.004C117.842 23.3153 117.448 23.5643 117.007 23.7355C116.566 23.9067 116.077 24.0001 115.557 24.0001ZM115.557 23.1285C115.936 23.1285 116.282 23.0663 116.613 22.9417C116.944 22.8172 117.212 22.6305 117.464 22.397C117.7 22.1635 117.889 21.8834 118.031 21.5721C118.173 21.2608 118.236 20.9028 118.236 20.5293C118.236 20.1557 118.173 19.8133 118.031 19.4865C117.889 19.1752 117.716 18.895 117.464 18.6616C117.227 18.4281 116.944 18.2414 116.613 18.1168C116.282 17.9923 115.936 17.9301 115.557 17.9301C115.179 17.9301 114.817 17.9923 114.486 18.1168C114.155 18.2414 113.872 18.4281 113.635 18.6616C113.399 18.895 113.21 19.1752 113.068 19.4865C112.926 19.7978 112.863 20.1557 112.863 20.5293C112.863 20.9028 112.926 21.2452 113.068 21.5721C113.21 21.8834 113.383 22.1635 113.635 22.397C113.872 22.6305 114.155 22.8172 114.486 22.9417C114.817 23.0663 115.164 23.1285 115.557 23.1285Z" fill="white"/>
<path d="M126.994 24.0005C126.096 24.0005 125.372 23.7515 124.868 23.2379C124.348 22.7243 124.096 21.9772 124.096 20.9966V17.1367H125.072V20.9655C125.072 21.7282 125.246 22.2729 125.577 22.6309C125.907 22.9889 126.396 23.1601 127.01 23.1601C127.625 23.1601 128.113 22.9889 128.444 22.6309C128.775 22.2885 128.948 21.7282 128.948 20.9655V17.1367H129.909V20.9966C129.909 21.9772 129.657 22.7243 129.137 23.2379C128.617 23.7515 127.908 24.0005 126.994 24.0005Z" fill="white"/>
<path d="M135.359 23.9227V17.1211H138.038C138.636 17.1211 139.156 17.2145 139.581 17.4012C140.007 17.588 140.338 17.8682 140.558 18.2106C140.795 18.5686 140.905 18.9888 140.905 19.4869C140.905 19.9849 140.795 20.4051 140.558 20.7476C140.322 21.1055 140.007 21.3701 139.581 21.5569C139.156 21.7437 138.636 21.837 138.038 21.837H135.895L136.336 21.3857V23.9071H135.359V23.9227ZM136.336 21.5102L135.895 21.0277H138.006C138.636 21.0277 139.109 20.8876 139.44 20.623C139.771 20.3584 139.928 19.9849 139.928 19.5024C139.928 19.0199 139.771 18.6464 139.44 18.3818C139.109 18.1172 138.636 17.9771 138.006 17.9771H135.895L136.336 17.4946V21.5102Z" fill="white"/>
</g>
<defs>
<clipPath id="clip0_6987_14060">
<rect width="141" height="24" fill="white"/>
</clipPath>
</defs>
</svg>
