<svg width="103" height="103" viewBox="0 0 103 103" fill="none" xmlns="http://www.w3.org/2000/svg">
<path d="M51.5005 97.2782C42.4465 97.2782 33.5958 94.5934 26.0677 89.5633C18.5396 84.5332 12.6721 77.3836 9.2073 69.0188C5.74249 60.6541 4.83594 51.4497 6.60228 42.5697C8.36863 33.6896 12.7285 25.5328 19.1307 19.1307C25.5328 12.7285 33.6896 8.36863 42.5697 6.60228C51.4497 4.83594 60.6541 5.74249 69.0188 9.2073C77.3836 12.6721 84.5332 18.5396 89.5633 26.0677C94.5934 33.5958 97.2782 42.4465 97.2782 51.5005C97.2782 63.6415 92.4552 75.2852 83.8702 83.8702C75.2852 92.4552 63.6415 97.2782 51.5005 97.2782ZM51.5005 11.4449C43.5782 11.4449 35.8339 13.7941 29.2468 18.1955C22.6597 22.5968 17.5257 28.8527 14.4939 36.1719C11.4622 43.4911 10.669 51.5449 12.2146 59.3149C13.7601 67.0849 17.575 74.2221 23.1769 79.824C28.7788 85.4259 35.916 89.2408 43.686 90.7863C51.456 92.3319 59.5099 91.5387 66.8291 88.507C74.1482 85.4753 80.4041 80.3412 84.8054 73.7541C89.2068 67.167 91.556 59.4227 91.556 51.5005C91.556 40.8771 87.3359 30.6888 79.824 23.1769C72.3121 15.665 62.1238 11.4449 51.5005 11.4449Z" fill="#FF707A"/>
<rect width="53.1357" height="6.55704" rx="3.27852" transform="matrix(-0.666089 0.745872 0.745872 0.666089 66.3945 30)" fill="#FF707A"/>
<rect x="35.8945" y="30" width="53.1357" height="6.55704" rx="3.27852" transform="rotate(48.2341 35.8945 30)" fill="#FF707A"/>
</svg>
