<svg width="23" height="23" viewBox="0 0 23 23" fill="none" xmlns="http://www.w3.org/2000/svg">
<g clip-path="url(#clip0_6388_24082)">
<path d="M11.5 23C17.8513 23 23 17.8513 23 11.5C23 5.14873 17.8513 0 11.5 0C5.14873 0 0 5.14873 0 11.5C0 17.8513 5.14873 23 11.5 23Z" fill="#F0F0F0"/>
<path d="M2.37563 4.49857C1.4723 5.67386 0.791147 7.02848 0.394531 8.50007H6.37714L2.37563 4.49857Z" fill="#0052B4"/>
<path d="M22.6036 8.50009C22.207 7.02854 21.5258 5.67392 20.6225 4.49863L16.6211 8.50009H22.6036Z" fill="#0052B4"/>
<path d="M0.394531 14.5001C0.791191 15.9716 1.47234 17.3262 2.37563 18.5015L6.377 14.5001H0.394531Z" fill="#0052B4"/>
<path d="M18.5015 2.37732C17.3262 1.47399 15.9716 0.792839 14.5 0.396179V6.37874L18.5015 2.37732Z" fill="#0052B4"/>
<path d="M4.49609 20.6227C5.67138 21.526 7.026 22.2072 8.49755 22.6039V16.6213L4.49609 20.6227Z" fill="#0052B4"/>
<path d="M8.49751 0.396179C7.02596 0.792839 5.67134 1.47399 4.49609 2.37728L8.49751 6.37869V0.396179Z" fill="#0052B4"/>
<path d="M14.5 22.6039C15.9716 22.2072 17.3262 21.526 18.5014 20.6228L14.5 16.6213V22.6039Z" fill="#0052B4"/>
<path d="M16.6211 14.5001L20.6225 18.5015C21.5258 17.3263 22.207 15.9716 22.6036 14.5001H16.6211Z" fill="#0052B4"/>
<path d="M22.9027 10H13.0001H13V0.0973457C12.509 0.0334219 12.0084 0 11.5 0C10.9915 0 10.491 0.0334219 10 0.0973457V9.99992V9.99997H0.0973457C0.0334219 10.491 0 10.9916 0 11.5C0 12.0085 0.0334219 12.509 0.0973457 13H9.99992H9.99997V22.9027C10.491 22.9666 10.9915 23 11.5 23C12.0084 23 12.509 22.9666 13 22.9027V13.0001V13H22.9027C22.9666 12.509 23 12.0085 23 11.5C23 10.9916 22.9666 10.491 22.9027 10Z" fill="#D80027"/>
<path d="M14.5 14.5001L19.6317 19.6318C19.8677 19.3958 20.0929 19.1492 20.3077 18.8935L15.9142 14.5H14.5V14.5001Z" fill="#D80027"/>
<path d="M8.49893 14.5001H8.49884L3.36719 19.6317C3.60312 19.8677 3.84978 20.0929 4.10548 20.3077L8.49893 15.9142V14.5001Z" fill="#D80027"/>
<path d="M8.49909 8.50009V8.5L3.36739 3.36826C3.13137 3.60419 2.90622 3.85085 2.69141 4.10655L7.0849 8.50004H8.49909V8.50009Z" fill="#D80027"/>
<path d="M14.5 8.50008L19.6317 3.36829C19.3958 3.13227 19.1491 2.90712 18.8934 2.69235L14.5 7.08585V8.50008Z" fill="#D80027"/>
</g>
<defs>
<clipPath id="clip0_6388_24082">
<rect width="23" height="23" fill="white"/>
</clipPath>
</defs>
</svg>
