<svg width="141" height="24" viewBox="0 0 141 24" fill="none" xmlns="http://www.w3.org/2000/svg">
<g clip-path="url(#clip0_7792_2523)">
<path d="M9.3895 3.1906C8.74358 2.86375 8.09765 2.70811 7.45173 2.70811C6.80581 2.70811 5.95508 2.89488 5.30916 3.28399C4.66324 3.65753 4.14335 4.18671 3.78101 4.84041C3.4029 5.4941 3.22961 6.22562 3.22961 7.01939C3.22961 7.81317 3.41866 8.54469 3.78101 9.21395C4.15911 9.86764 4.66324 10.3968 5.30916 10.7859C5.95508 11.175 6.67978 11.3618 7.45173 11.3618C8.22369 11.3618 8.71207 11.2217 9.34223 10.926C9.98816 10.6303 10.5553 10.2412 11.0594 9.74313L12.9027 11.7198C12.1622 12.4824 11.2958 13.0739 10.2875 13.5252C9.29497 13.9766 8.2867 14.1945 7.27844 14.1945C6.27017 14.1945 4.67899 13.8832 3.56045 13.2606C2.4419 12.6381 1.57542 11.782 0.945251 10.7081C0.315084 9.58749 0 8.37348 0 7.03496C0 5.69644 0.330838 4.51356 0.97676 3.43963C1.62268 2.3657 2.52067 1.52523 3.65497 0.902663C4.77352 0.311223 6.03385 -6.07967e-05 7.40447 -6.07967e-05C8.77508 -6.07967e-05 9.40525 0.202274 10.382 0.622507C11.3588 1.02718 12.1937 1.58749 12.8869 2.30344L11.0594 4.51356C10.5868 3.95325 10.0197 3.51745 9.3895 3.1906ZM27.2075 13.9455L26.1204 11.284H19.6927L18.6057 13.9455H15.3761L21.3942 0.217838H24.6238L30.5631 13.9455H27.2075ZM20.7168 8.79371H25.1122L22.9223 3.45519L20.7168 8.79371ZM33.7455 0.217838H36.8806V11.2373H42.8356V13.9455H33.7455V0.217838ZM46.8057 0.217838H49.9408V13.9455H46.8057V0.217838ZM54.3204 0.217838H64.3086V2.78593H57.4555V6.16336H63.7257V8.74702H57.4555V13.9455H54.3204V0.217838ZM78.834 0.918227C79.9683 1.5408 80.8663 2.38126 81.5279 3.45519C82.1896 4.52912 82.5047 5.72757 82.5047 7.05052C82.5047 8.37348 82.1739 9.57192 81.5279 10.6614C80.8663 11.7509 79.9683 12.6069 78.834 13.2139C77.6997 13.8365 76.4236 14.1478 75.0372 14.1478C73.6508 14.1478 72.3905 13.8365 71.2404 13.2139C70.1061 12.5914 69.2082 11.7353 68.5465 10.6614C67.8848 9.58749 67.5697 8.37348 67.5697 7.03496C67.5697 5.69644 67.9006 4.51356 68.5465 3.43963C69.2082 2.3657 70.0904 1.50967 71.2247 0.902663C72.359 0.295659 73.6193 -0.015625 75.0215 -0.015625C76.4236 -0.015625 77.6682 0.295659 78.8182 0.902663L78.834 0.918227ZM72.9419 3.28399C72.2802 3.67309 71.7603 4.20227 71.3665 4.85597C70.9884 5.52523 70.7836 6.25675 70.7836 7.05052C70.7836 7.8443 70.9726 8.60694 71.3665 9.26064C71.7603 9.9299 72.2802 10.4591 72.9419 10.8482C73.6036 11.2373 74.3125 11.4396 75.0687 11.4396C75.8249 11.4396 76.5339 11.2529 77.1798 10.8638C77.8257 10.4746 78.3298 9.94547 78.7079 9.2762C79.086 8.60694 79.2751 7.85986 79.2751 7.05052C79.2751 6.24118 79.086 5.52523 78.7079 4.85597C78.3298 4.18671 77.8257 3.65753 77.1798 3.28399C76.5339 2.89488 75.8407 2.70811 75.0687 2.70811C74.2968 2.70811 73.5878 2.89488 72.9261 3.28399H72.9419ZM94.4779 13.9455L92.2723 10.0233H89.0742V13.9455H85.9391V0.217838H91.973C93.7847 0.217838 95.1868 0.638072 96.1793 1.46297C97.1718 2.28788 97.676 3.47076 97.676 4.98048C97.676 6.49021 97.4554 6.94157 97.0143 7.70422C96.5732 8.4513 95.9273 9.02718 95.0765 9.41628L98.0383 13.9455H94.4779ZM89.0899 7.43963H91.9887C92.8552 7.43963 93.5326 7.23729 94.0053 6.84819C94.4779 6.44352 94.7142 5.86764 94.7142 5.08943C94.7142 4.31122 94.4779 3.76648 94.0053 3.37737C93.5326 2.98827 92.871 2.8015 91.9887 2.8015H89.0899V7.45519V7.43963ZM111.87 0.217838H114.848V13.9455H111.997L105.27 5.12056V13.9455H102.276V0.217838H105.128L111.886 9.08943V0.217838H111.87ZM119.196 0.217838H122.331V13.9455H119.196V0.217838ZM137.644 13.9455L136.557 11.284H130.13L129.043 13.9455H125.813L131.831 0.217838H135.061L141 13.9455H137.644ZM131.154 8.79371H135.549L133.359 3.45519L131.154 8.79371Z" fill="#DA2128"/>
<path d="M3.02472 23.9223L0.724609 17.1207H1.73288L3.84394 23.3931H3.3398L5.52964 17.1207H6.42763L8.5702 23.3931H8.08182L10.2244 17.1207H11.1539L8.85377 23.9223H7.82975L5.82897 18.1013H6.09679L4.08025 23.9223H3.02472Z" fill="#DA2128"/>
<path d="M16.7775 23.0818H20.7949V23.9223H15.8008V17.1207H20.6531V17.9612H16.7775V23.0663V23.0818ZM16.6988 20.0624H20.2435V20.8873H16.6988V20.0624Z" fill="#DA2128"/>
<path d="M25.8204 23.9223V17.1207H26.7972V23.0663H30.5152V23.9067H25.8047L25.8204 23.9223Z" fill="#DA2128"/>
<path d="M35.0997 23.9223V17.1207H36.0765V23.0663H39.7945V23.9067H35.084L35.0997 23.9223Z" fill="#DA2128"/>
<path d="M44.3789 23.9223V17.1207H45.1824L49.7353 22.7083H49.31V17.1207H50.2867V23.9223H49.4833L44.9303 18.3347H45.3557V23.9223H44.3789Z" fill="#DA2128"/>
<path d="M56.7775 23.0818H60.7949V23.9223H55.8008V17.1207H60.6531V17.9612H56.7775V23.0663V23.0818ZM56.6988 20.0624H60.2435V20.8873H56.6988V20.0624Z" fill="#DA2128"/>
<path d="M67.838 24C67.3181 24 66.814 23.9222 66.3413 23.7666C65.8687 23.6109 65.4906 23.4086 65.207 23.144L65.5694 22.3814C65.8372 22.6148 66.168 22.8016 66.5776 22.9417C66.9873 23.0973 67.4126 23.1596 67.838 23.1596C68.2633 23.1596 68.5627 23.1129 68.8147 23.0195C69.0668 22.9261 69.2401 22.8016 69.3661 22.646C69.4764 22.4903 69.5394 22.3035 69.5394 22.1012C69.5394 21.8989 69.4607 21.681 69.3031 21.5409C69.1456 21.4008 68.9565 21.2763 68.7045 21.1985C68.4524 21.1051 68.1846 21.0273 67.901 20.965C67.6174 20.9028 67.3023 20.8249 67.0188 20.7316C66.7194 20.6382 66.4516 20.5292 66.1995 20.3892C65.9475 20.2491 65.7584 20.0779 65.6009 19.8444C65.4433 19.6109 65.3803 19.3152 65.3803 18.9572C65.3803 18.5993 65.4749 18.288 65.6639 17.9923C65.853 17.6965 66.1365 17.4631 66.5304 17.2763C66.9242 17.0895 67.4126 17.0117 68.027 17.0117C68.6414 17.0117 68.8305 17.0584 69.2086 17.1674C69.6024 17.2763 69.949 17.4164 70.2326 17.6187L69.9018 18.3969C69.6025 18.2102 69.3031 18.0545 68.9723 17.9767C68.6414 17.8833 68.3264 17.8522 68.0113 17.8522C67.6962 17.8522 67.3023 17.8989 67.0503 17.9923C66.7982 18.0856 66.6249 18.2257 66.4989 18.3814C66.3886 18.537 66.3256 18.7238 66.3256 18.9261C66.3256 19.1284 66.4044 19.3619 66.5619 19.502C66.7194 19.6421 66.9085 19.751 67.1605 19.8444C67.4126 19.9222 67.6804 20 67.964 20.0779C68.2633 20.1401 68.5627 20.2179 68.8463 20.3113C69.1456 20.3892 69.4134 20.4981 69.6655 20.6382C69.9175 20.7783 70.1066 20.9495 70.2641 21.1829C70.4217 21.4164 70.4847 21.6965 70.4847 22.0545C70.4847 22.4125 70.3902 22.7238 70.2011 23.0039C70.0121 23.2997 69.7127 23.5331 69.3189 23.7199C68.925 23.8911 68.4209 23.9845 67.8222 23.9845L67.838 24Z" fill="#DA2128"/>
<path d="M77.3692 24C76.8493 24 76.3452 23.9222 75.8726 23.7666C75.4 23.6109 75.0219 23.4086 74.7383 23.144L75.1006 22.3814C75.3685 22.6148 75.6993 22.8016 76.1089 22.9417C76.5185 23.0973 76.9439 23.1596 77.3692 23.1596C77.7946 23.1596 78.0939 23.1129 78.346 23.0195C78.5981 22.9261 78.7714 22.8016 78.8974 22.646C79.0077 22.4903 79.0707 22.3035 79.0707 22.1012C79.0707 21.8989 78.9919 21.681 78.8344 21.5409C78.6768 21.4008 78.4878 21.2763 78.2357 21.1985C77.9836 21.1051 77.7158 21.0273 77.4322 20.965C77.1487 20.9028 76.8336 20.8249 76.55 20.7316C76.2507 20.6382 75.9829 20.5292 75.7308 20.3892C75.4787 20.2491 75.2897 20.0779 75.1321 19.8444C74.9746 19.6109 74.9116 19.3152 74.9116 18.9572C74.9116 18.5993 75.0061 18.288 75.1952 17.9923C75.3842 17.6965 75.6678 17.4631 76.0616 17.2763C76.4555 17.1051 76.9439 17.0117 77.5583 17.0117C78.1727 17.0117 78.3617 17.0584 78.7398 17.1674C79.1337 17.2763 79.4803 17.4164 79.7639 17.6187L79.433 18.3969C79.1337 18.2102 78.8344 18.0545 78.5035 17.9767C78.1727 17.8833 77.8576 17.8522 77.5425 17.8522C77.2274 17.8522 76.8336 17.8989 76.5815 17.9923C76.3295 18.0856 76.1562 18.2257 76.0301 18.3814C75.9041 18.537 75.8568 18.7238 75.8568 18.9261C75.8568 19.1284 75.9356 19.3619 76.0931 19.502C76.2507 19.6421 76.4397 19.751 76.6918 19.8444C76.9439 19.9222 77.2117 20 77.4953 20.0779C77.7946 20.1401 78.0939 20.2179 78.3775 20.3113C78.6768 20.3892 78.9447 20.4981 79.1967 20.6382C79.4488 20.7783 79.6378 20.9495 79.7954 21.1829C79.9529 21.4164 80.0159 21.6965 80.0159 22.0545C80.0159 22.4125 79.9214 22.7238 79.7324 23.0039C79.5433 23.2997 79.244 23.5331 78.8501 23.7199C78.4563 23.8911 77.9521 23.9845 77.3535 23.9845L77.3692 24Z" fill="#DA2128"/>
<path d="M93.9422 24C93.4066 24 92.9182 23.9066 92.4771 23.7354C92.036 23.5642 91.6421 23.3152 91.3113 23.0039C90.9804 22.6926 90.7284 22.3191 90.5393 21.8988C90.3503 21.4786 90.2715 21.0117 90.2715 20.5136C90.2715 20.0155 90.366 19.5486 90.5393 19.1284C90.7284 18.7082 90.9804 18.3346 91.3113 18.0233C91.6421 17.712 92.036 17.463 92.4771 17.2918C92.9182 17.1206 93.4066 17.0272 93.958 17.0272C94.5094 17.0272 94.9977 17.1206 95.4546 17.2918C95.9115 17.463 96.2896 17.7276 96.6047 18.0856L95.9903 18.6926C95.7067 18.428 95.4074 18.2257 95.0765 18.1012C94.7457 17.9766 94.3833 17.9144 94.0052 17.9144C93.6271 17.9144 93.249 17.9766 92.9024 18.1012C92.5716 18.2257 92.2723 18.4124 92.0202 18.6459C91.7681 18.8794 91.5791 19.1595 91.453 19.4708C91.3113 19.7976 91.2482 20.1401 91.2482 20.5136C91.2482 20.8871 91.3113 21.2296 91.453 21.5408C91.5948 21.8677 91.7839 22.1323 92.0202 22.3813C92.2723 22.6148 92.5558 22.8015 92.8867 22.9261C93.2175 23.0506 93.5799 23.1128 93.9737 23.1128C94.3676 23.1128 94.6984 23.0506 95.0293 22.9416C95.3601 22.8327 95.6752 22.6459 95.9745 22.3813L96.5417 23.1128C96.1951 23.393 95.8012 23.6109 95.3443 23.751C94.8875 23.891 94.4148 23.9689 93.9265 23.9689L93.9422 24ZM95.6122 23.0039V20.4825H96.5574V23.1284L95.6122 23.0039Z" fill="#DA2128"/>
<path d="M101.867 23.9223V17.1207H104.545C105.144 17.1207 105.664 17.2141 106.089 17.4009C106.515 17.5877 106.846 17.8678 107.066 18.2102C107.302 18.5682 107.413 18.9884 107.413 19.4865C107.413 19.9845 107.302 20.4048 107.066 20.7472C106.83 21.1052 106.515 21.3698 106.089 21.5565C105.664 21.7433 105.144 21.8367 104.545 21.8367H102.403L102.844 21.3853V23.9067H101.867V23.9223ZM102.844 21.5098L102.403 21.0273H104.514C105.144 21.0273 105.617 20.8873 105.948 20.6227C106.278 20.3581 106.436 19.9845 106.436 19.4865C106.436 18.9884 106.278 18.6305 105.948 18.3659C105.617 18.1013 105.144 17.9612 104.514 17.9612H102.403L102.844 17.4787V21.4943V21.5098ZM106.467 23.9223L104.719 21.4631H105.774L107.539 23.9223H106.467Z" fill="#DA2128"/>
<path d="M115.557 24C115.038 24 114.549 23.9066 114.092 23.7354C113.651 23.5642 113.257 23.3152 112.926 23.0039C112.596 22.6926 112.344 22.3191 112.155 21.8988C111.965 21.4786 111.887 21.0117 111.887 20.5136C111.887 20.0155 111.981 19.5486 112.155 19.1284C112.344 18.7082 112.596 18.3346 112.926 18.0233C113.257 17.712 113.635 17.463 114.092 17.2918C114.533 17.1206 115.022 17.0272 115.557 17.0272C116.093 17.0272 116.566 17.1206 117.007 17.2918C117.448 17.463 117.842 17.712 118.173 18.0233C118.503 18.3346 118.756 18.7082 118.945 19.1284C119.118 19.5486 119.212 20.0155 119.212 20.5136C119.212 21.0117 119.118 21.4786 118.945 21.8988C118.771 22.3191 118.503 22.6926 118.173 23.0039C117.842 23.3152 117.448 23.5642 117.007 23.7354C116.566 23.9066 116.077 24 115.557 24ZM115.557 23.1284C115.936 23.1284 116.282 23.0661 116.613 22.9416C116.944 22.8171 117.212 22.6303 117.464 22.3969C117.7 22.1634 117.889 21.8833 118.031 21.572C118.173 21.2607 118.236 20.9027 118.236 20.5292C118.236 20.1556 118.173 19.8132 118.031 19.4864C117.889 19.1751 117.716 18.8949 117.464 18.6615C117.227 18.428 116.944 18.2412 116.613 18.1167C116.282 17.9922 115.936 17.9299 115.557 17.9299C115.179 17.9299 114.817 17.9922 114.486 18.1167C114.155 18.2412 113.872 18.428 113.635 18.6615C113.399 18.8949 113.21 19.1751 113.068 19.4864C112.926 19.7976 112.863 20.1556 112.863 20.5292C112.863 20.9027 112.926 21.2451 113.068 21.572C113.21 21.8833 113.383 22.1634 113.635 22.3969C113.872 22.6303 114.155 22.8171 114.486 22.9416C114.817 23.0661 115.164 23.1284 115.557 23.1284Z" fill="#DA2128"/>
<path d="M126.994 24C126.096 24 125.372 23.751 124.868 23.2374C124.348 22.7238 124.096 21.9767 124.096 20.9962V17.1362H125.072V20.965C125.072 21.7277 125.246 22.2724 125.577 22.6304C125.907 22.9884 126.396 23.1596 127.01 23.1596C127.625 23.1596 128.113 22.9884 128.444 22.6304C128.775 22.288 128.948 21.7277 128.948 20.965V17.1362H129.909V20.9962C129.909 21.9767 129.657 22.7238 129.137 23.2374C128.617 23.751 127.908 24 126.994 24Z" fill="#DA2128"/>
<path d="M135.359 23.9223V17.1207H138.038C138.636 17.1207 139.156 17.2141 139.581 17.4009C140.007 17.5877 140.338 17.8678 140.558 18.2102C140.795 18.5682 140.905 18.9884 140.905 19.4865C140.905 19.9845 140.795 20.4048 140.558 20.7472C140.322 21.1052 140.007 21.3698 139.581 21.5565C139.156 21.7433 138.636 21.8367 138.038 21.8367H135.895L136.336 21.3853V23.9067H135.359V23.9223ZM136.336 21.5098L135.895 21.0273H138.006C138.636 21.0273 139.109 20.8873 139.44 20.6227C139.771 20.3581 139.928 19.9845 139.928 19.5021C139.928 19.0196 139.771 18.646 139.44 18.3814C139.109 18.1168 138.636 17.9768 138.006 17.9768H135.895L136.336 17.4943V21.5098Z" fill="#DA2128"/>
</g>
<defs>
<clipPath id="clip0_7792_2523">
<rect width="141" height="24" fill="white"/>
</clipPath>
</defs>
</svg>
