<svg width="120" height="120" viewBox="0 0 120 120" fill="none" xmlns="http://www.w3.org/2000/svg">
<path d="M55.9367 70.7795C55.6913 70.7795 55.4923 70.5805 55.4923 70.3351C55.5226 67.4348 55.8026 65.1271 56.3325 63.4119C56.8775 61.6967 57.6496 60.309 58.6488 59.2487C59.648 58.1884 60.8516 57.2216 62.2595 56.3484C63.1679 55.7559 63.9854 55.0932 64.7121 54.3604C65.4388 53.6275 66.0141 52.7855 66.438 51.8344C66.8619 50.8832 67.0738 49.8307 67.0738 48.6769C67.0738 47.2891 66.7559 46.0885 66.12 45.0749C65.4842 44.0614 64.6364 43.2818 63.5766 42.736C62.532 42.1747 61.3663 41.894 60.0795 41.894C58.9138 41.894 57.801 42.1435 56.7413 42.6425C55.6815 43.1414 54.8035 43.9211 54.1071 44.9814C53.9274 45.2508 53.7675 45.5405 53.6271 45.8504C52.8671 47.5287 51.4697 49.0277 49.6273 49.0277C47.6465 49.0277 46.0037 47.3583 46.5129 45.4441C46.8597 44.1404 47.3776 42.9649 48.0665 41.9174C49.3382 39.9683 51.0187 38.4948 53.1079 37.4969C55.2122 36.499 57.5361 36 60.0795 36C62.8651 36 65.3025 36.5379 67.3917 37.6138C69.4809 38.6741 71.1008 40.1632 72.2514 42.0811C73.4171 43.9835 74 46.2054 74 48.747C74 50.4934 73.7351 52.0683 73.2052 53.4716C72.6753 54.8593 71.9184 56.099 70.9343 57.1905C69.9654 58.2819 68.7997 59.2487 67.4371 60.0907C66.1503 60.9171 65.1057 61.7747 64.3033 62.6635C63.5161 63.5523 62.9408 64.6048 62.5775 65.821C62.2141 67.0372 62.0173 68.5419 61.987 70.3351C61.987 70.5805 61.7881 70.7795 61.5426 70.7795H55.9367ZM58.9213 85C57.6799 85 56.6126 84.5478 55.7194 83.6434C54.8262 82.7235 54.3796 81.6164 54.3796 80.3222C54.3796 79.0436 54.8262 77.9521 55.7194 77.0477C56.6126 76.1278 57.6799 75.6678 58.9213 75.6678C60.1476 75.6678 61.2074 76.1278 62.1006 77.0477C63.0089 77.9521 63.4631 79.0436 63.4631 80.3222C63.4631 81.1798 63.2511 81.9672 62.8272 82.6845C62.4185 83.3862 61.8735 83.9475 61.1922 84.3685C60.5109 84.7895 59.754 85 58.9213 85Z" fill="#6B6B6B"/>
<path d="M60.5 106C51.501 106 42.704 103.331 35.2216 98.3319C27.7391 93.3323 21.9073 86.2261 18.4635 77.9121C15.0197 69.5981 14.1187 60.4495 15.8743 51.6234C17.6299 42.7973 21.9634 34.6899 28.3267 28.3267C34.6899 21.9634 42.7973 17.6299 51.6234 15.8743C60.4495 14.1187 69.5981 15.0197 77.9121 18.4635C86.2261 21.9073 93.3323 27.7391 98.3319 35.2216C103.331 42.704 106 51.501 106 60.5C106 72.5674 101.206 84.1405 92.6734 92.6734C84.1405 101.206 72.5674 106 60.5 106ZM60.5 20.6875C52.6258 20.6875 44.9285 23.0225 38.3814 27.3971C31.8342 31.7718 26.7314 37.9896 23.7181 45.2644C20.7048 52.5392 19.9163 60.5442 21.4525 68.267C22.9887 75.9899 26.7804 83.0838 32.3483 88.6517C37.9162 94.2196 45.0101 98.0113 52.733 99.5475C60.4558 101.084 68.4608 100.295 75.7356 97.282C83.0104 94.2686 89.2282 89.1658 93.6029 82.6186C97.9775 76.0715 100.312 68.3742 100.312 60.5C100.312 49.9411 96.118 39.8146 88.6517 32.3483C81.1854 24.882 71.0589 20.6875 60.5 20.6875Z" fill="#6B6B6B"/>
</svg>
