<svg width="120" height="120" viewBox="0 0 120 120" fill="none" xmlns="http://www.w3.org/2000/svg">
<path d="M60 85C61.6569 85 63 83.6569 63 82C63 80.3431 61.6569 79 60 79C58.3431 79 57 80.3431 57 82C57 83.6569 58.3431 85 60 85Z" fill="#FF9F41"/>
<path d="M60 73.0371C59.2044 73.0371 58.4413 72.7511 57.8787 72.2421C57.3161 71.7331 57 71.0427 57 70.3228V37.7514C57 37.0315 57.3161 36.3411 57.8787 35.8321C58.4413 35.3231 59.2044 35.0371 60 35.0371C60.7956 35.0371 61.5587 35.3231 62.1213 35.8321C62.6839 36.3411 63 37.0315 63 37.7514V70.3228C63 71.0427 62.6839 71.7331 62.1213 72.2421C61.5587 72.7511 60.7956 73.0371 60 73.0371Z" fill="#FF9F41"/>
<path d="M60.4297 104.537C51.4306 104.537 42.6337 101.869 35.1513 96.869C27.6688 91.8694 21.837 84.7632 18.3932 76.4492C14.9494 68.1352 14.0484 58.9866 15.804 50.1605C17.5596 41.3344 21.8931 33.2271 28.2563 26.8638C34.6196 20.5005 42.727 16.167 51.5531 14.4114C60.3792 12.6558 69.5278 13.5568 77.8418 17.0006C86.1558 20.4444 93.262 26.2762 98.2616 33.7587C103.261 41.2411 105.93 50.0381 105.93 59.0371C105.93 71.1045 101.136 82.6776 92.6031 91.2105C84.0701 99.7434 72.497 104.537 60.4297 104.537ZM60.4297 19.2246C52.5555 19.2246 44.8582 21.5596 38.3111 25.9342C31.7639 30.3089 26.6611 36.5268 23.6478 43.8015C20.6344 51.0763 19.846 59.0813 21.3822 66.8041C22.9184 74.527 26.7101 81.6209 32.278 87.1888C37.8459 92.7567 44.9398 96.5484 52.6627 98.0846C60.3855 99.6208 68.3905 98.8324 75.6653 95.8191C82.9401 92.8057 89.1579 87.7029 93.5326 81.1558C97.9072 74.6086 100.242 66.9113 100.242 59.0371C100.242 48.4782 96.0477 38.3517 88.5814 30.8854C81.1151 23.4191 70.9886 19.2246 60.4297 19.2246Z" fill="#FF9F41"/>
</svg>
